<?xml version="1.0" encoding="utf-8"?>
<!-- Generator: Adobe Illustrator 22.0.1, SVG Export Plug-In . SVG Version: 6.00 Build 0)  -->
<svg version="1.1" id="Layer_1" xmlns="http://www.w3.org/2000/svg" xmlns:xlink="http://www.w3.org/1999/xlink" x="0px" y="0px"
	 viewBox="0 0 88.3 245.5" style="enable-background:new 0 0 88.3 245.5;" xml:space="preserve">
<style type="text/css">
	.st0{fill:#E2E2E2;}
</style>
<title>homeArrowSelected</title>
<image style="overflow:visible;opacity:0.5;enable-background:new    ;" width="371" height="1029" xlink:href="87B2855584FCE902.png"  transform="matrix(0.2381 0 0 0.2386 0 0)">
</image>
<g>
	<path class="st0" d="M0,227.7C0,156,0,84.3,0,12.6c2.4,0,4.9,0,7.3,0c1,0,1.4,0.3,1.9,1.1c1.7,3.1,3.5,6.2,5.2,9.3
		c5.8,10.3,11.7,20.7,17.5,31C37.5,64,43,73.9,48.6,83.9c6.5,11.6,13,23.2,19.6,34.8c0.7,1.2,0.6,2,0,3.2
		c-3.1,5.4-6.2,10.8-9.2,16.3c-9.8,17.4-19.6,34.9-29.4,52.4C22.8,202.7,16,214.8,9.2,227c-0.4,0.7-0.8,0.9-1.5,0.9
		C5,227.7,2.5,227.7,0,227.7z"/>
</g>
</svg>
