<?xml version="1.0" encoding="utf-8"?>
<!-- Generator: Adobe Illustrator 21.1.0, SVG Export Plug-In . SVG Version: 6.00 Build 0)  -->
<svg version="1.1" id="Layer_1" xmlns="http://www.w3.org/2000/svg" xmlns:xlink="http://www.w3.org/1999/xlink" x="0px" y="0px"
	 viewBox="0 0 48 33.5" style="enable-background:new 0 0 48 33.5;" xml:space="preserve">
<style type="text/css">
	.st0{enable-background:new    ;}
	.st1{fill:#FFFFFF;}
</style>
<g class="st0">
	<path class="st1" d="M0,32.9v-7.2h1.9c0.8,0,1.4,0.2,1.7,0.5c0.3,0.3,0.5,0.7,0.5,1.1c0,0.4-0.1,0.7-0.3,1
		c-0.2,0.3-0.6,0.6-1.1,0.8c0.5,0.1,0.8,0.3,1.1,0.5c0.2,0.2,0.4,0.4,0.5,0.7c0.1,0.3,0.2,0.5,0.2,0.8c0,0.3-0.1,0.6-0.3,0.9
		s-0.4,0.5-0.7,0.7c-0.3,0.1-0.7,0.2-1.3,0.2H0z M1,28.9h0.3c0.6,0,1-0.1,1.3-0.4c0.3-0.3,0.4-0.6,0.4-1c0-0.3-0.1-0.6-0.4-0.8
		c-0.2-0.2-0.7-0.3-1.3-0.3H1V28.9z M1,32.1h0.2c0.7,0,1.2,0,1.4-0.1c0.2-0.1,0.4-0.2,0.5-0.4c0.1-0.2,0.2-0.4,0.2-0.6
		c0-0.4-0.2-0.8-0.6-1.1c-0.4-0.3-0.9-0.4-1.5-0.4H1V32.1z"/>
	<path class="st1" d="M7.9,33c-0.5,0-0.9-0.1-1.3-0.3s-0.7-0.5-0.9-1c-0.2-0.4-0.3-0.9-0.3-1.5c0-0.5,0.1-1,0.3-1.4
		c0.2-0.4,0.5-0.8,0.9-1c0.4-0.2,0.8-0.3,1.4-0.3c0.5,0,0.9,0.1,1.3,0.3c0.4,0.2,0.7,0.5,0.9,1c0.2,0.4,0.3,0.9,0.3,1.5
		c0,0.5-0.1,1-0.3,1.4c-0.2,0.4-0.5,0.8-0.9,1C8.9,32.9,8.4,33,7.9,33z M7.9,32.3c0.5,0,0.9-0.2,1.1-0.5c0.3-0.4,0.4-0.9,0.4-1.5
		c0-0.7-0.1-1.2-0.4-1.5s-0.6-0.5-1.1-0.5c-0.5,0-0.8,0.2-1.1,0.5c-0.3,0.4-0.4,0.9-0.4,1.5c0,0.7,0.1,1.2,0.4,1.5
		C7,32.1,7.4,32.3,7.9,32.3z"/>
	<path class="st1" d="M14,33c-0.5,0-0.9-0.1-1.3-0.3s-0.7-0.5-0.9-1c-0.2-0.4-0.3-0.9-0.3-1.5c0-0.5,0.1-1,0.3-1.4
		c0.2-0.4,0.5-0.8,0.9-1c0.4-0.2,0.8-0.3,1.4-0.3c0.5,0,0.9,0.1,1.3,0.3c0.4,0.2,0.7,0.5,0.9,1c0.2,0.4,0.3,0.9,0.3,1.5
		c0,0.5-0.1,1-0.3,1.4c-0.2,0.4-0.5,0.8-0.9,1C15,32.9,14.6,33,14,33z M14,32.3c0.5,0,0.9-0.2,1.1-0.5c0.3-0.4,0.4-0.9,0.4-1.5
		c0-0.7-0.1-1.2-0.4-1.5s-0.6-0.5-1.1-0.5c-0.5,0-0.8,0.2-1.1,0.5c-0.3,0.4-0.4,0.9-0.4,1.5c0,0.7,0.1,1.2,0.4,1.5
		C13.2,32.1,13.6,32.3,14,32.3z"/>
	<path class="st1" d="M18.1,32.9v-7.7h1v5l2.2-2.6h1l-2.1,2.5l2.6,2.8h-1.2L19,30.2v2.7H18.1z"/>
	<path class="st1" d="M23.9,32.9v-5.3h1v1c0.2-0.3,0.4-0.6,0.8-0.8c0.3-0.2,0.7-0.3,1.1-0.3c0.2,0,0.4,0,0.6,0.1
		c0.2,0.1,0.3,0.2,0.5,0.3s0.3,0.4,0.4,0.7c0.2-0.3,0.4-0.6,0.7-0.8c0.3-0.2,0.6-0.3,1-0.3c0.4,0,0.7,0.1,1,0.4
		c0.3,0.2,0.5,0.6,0.5,1.2v3.9h-1v-3.7c0-0.4-0.1-0.6-0.2-0.7s-0.3-0.2-0.5-0.2c-0.2,0-0.5,0.1-0.7,0.2c-0.2,0.1-0.5,0.4-0.9,0.8
		v3.6h-1v-3.7c0-0.4-0.1-0.6-0.2-0.7c-0.1-0.1-0.3-0.2-0.5-0.2c-0.2,0-0.5,0.1-0.7,0.2c-0.2,0.1-0.5,0.4-0.9,0.9v3.6H23.9z"/>
	<path class="st1" d="M36,32.2c-0.3,0.3-0.6,0.5-0.9,0.6S34.6,33,34.3,33c-0.4,0-0.7-0.1-1.1-0.4c-0.3-0.2-0.5-0.6-0.5-1.1
		c0-0.5,0.2-1,0.7-1.3c0.5-0.3,1.2-0.5,2.2-0.5h0.2v-0.6c0-0.3,0-0.4-0.1-0.6c-0.1-0.1-0.2-0.2-0.3-0.3c-0.1-0.1-0.3-0.1-0.5-0.1
		c-0.5,0-1.1,0.2-1.7,0.5v-0.8c0.7-0.3,1.3-0.4,1.9-0.4c0.3,0,0.6,0,0.9,0.1c0.3,0.1,0.5,0.3,0.6,0.5c0.2,0.2,0.2,0.6,0.2,1v2.4
		c0,0.3,0,0.4,0.1,0.5c0,0.1,0.1,0.2,0.2,0.2c0.1,0,0.2,0.1,0.3,0.1c0,0,0.1,0,0.2,0l0.1,0.5C37.4,33,37.2,33,36.9,33
		c-0.2,0-0.3-0.1-0.5-0.2C36.2,32.8,36.1,32.5,36,32.2z M35.9,31.7v-1.4l-0.3,0c-0.5,0-0.9,0.1-1.3,0.3c-0.3,0.2-0.5,0.5-0.5,0.8
		c0,0.2,0.1,0.4,0.3,0.6s0.4,0.2,0.6,0.2c0.2,0,0.4,0,0.6-0.1C35.5,32,35.7,31.9,35.9,31.7z"/>
	<path class="st1" d="M38.8,32.9v-5.3h1v1c0.2-0.4,0.4-0.6,0.7-0.8c0.3-0.2,0.6-0.3,0.9-0.3c0.1,0,0.2,0,0.3,0v0.9
		c-0.2-0.1-0.3-0.1-0.4-0.1c-0.3,0-0.6,0.1-0.8,0.3c-0.3,0.2-0.5,0.5-0.7,0.8v3.5H38.8z"/>
	<path class="st1" d="M42.9,32.9v-7.7h1v5l2.2-2.6h1L45,30.1l2.6,2.8h-1.2l-2.5-2.7v2.7H42.9z"/>
</g>
<polygon class="st1" points="16,21.4 16,5.8 22.4,0.2 28.7,5.8 28.7,21.4 22.4,15.8 "/>
<rect x="16" y="0.2" class="st1" width="12.7" height="14.1"/>
</svg>
