<?xml version="1.0" encoding="utf-8"?>
<!-- Generator: Adobe Illustrator 22.0.1, SVG Export Plug-In . SVG Version: 6.00 Build 0)  -->
<svg version="1.1" id="Layer_1" xmlns="http://www.w3.org/2000/svg" xmlns:xlink="http://www.w3.org/1999/xlink" x="0px" y="0px"
	 viewBox="0 0 25 25" style="enable-background:new 0 0 25 25;" xml:space="preserve">
<style type="text/css">
	.st0{fill:#FFFFFF;}
</style>
<g>
	<g>
		<g>
			<path class="st0" d="M13.1,20c1.5,0,3,0,4.5,0c0.9,0,1.8,0.1,2.7-0.1c2.1-0.3,4-2.2,4.2-4.3c0.2-2.6-1.3-4.8-3.8-5.4
				c-0.3-0.1-0.4-0.2-0.4-0.5c-0.1-1.1-0.6-2.1-1.4-2.8c-1.4-1.2-3.3-1.5-5-0.4c-0.2,0.1-0.3,0.1-0.5,0c-0.4-0.4-0.9-0.7-1.4-1
				c-1.7-0.7-3.7-0.2-4.8,1.2C6.4,7.4,6,8.4,6.1,9.4c0,0.5-0.1,0.7-0.6,0.8c-2,0.5-3.6,2.5-3.7,4.5c-0.1,3,2.1,5.2,5.1,5.3
				C9,20,11,20,13.1,20z"/>
			<path class="st0" d="M13.1,20C11,20,9,20,6.9,20c-3,0-5.2-2.3-5.1-5.3c0.1-2.1,1.7-4.1,3.7-4.5c0.5-0.1,0.7-0.3,0.6-0.8
				c-0.1-1.1,0.3-2,1-2.9c1.1-1.4,3.1-1.9,4.8-1.2c0.5,0.2,1,0.6,1.4,1c0.2,0.2,0.3,0.2,0.5,0c1.7-1,3.6-0.7,5,0.4
				c0.9,0.7,1.3,1.7,1.4,2.8c0,0.3,0.1,0.5,0.4,0.5c2.6,0.7,4.1,2.8,3.8,5.4c-0.2,2.1-2,4-4.2,4.3c-0.9,0.1-1.8,0.1-2.7,0.1
				C16.2,20,14.6,20,13.1,20z"/>
		</g>
	</g>
</g>
</svg>
