<?xml version="1.0" encoding="utf-8"?>
<!-- Generator: Adobe Illustrator 21.1.0, SVG Export Plug-In . SVG Version: 6.00 Build 0)  -->
<svg version="1.1" id="Layer_1" xmlns="http://www.w3.org/2000/svg" xmlns:xlink="http://www.w3.org/1999/xlink" x="0px" y="0px"
	 viewBox="0 0 26.8 32.1" style="enable-background:new 0 0 26.8 32.1;" xml:space="preserve">
<style type="text/css">
	.st0{display:none;fill:#5EEF11;}
	.st1{enable-background:new    ;}
	.st2{fill:#FFFFFF;}
	.st3{clip-path:url(#SVGID_2_);}
	.st4{clip-path:url(#SVGID_4_);}
</style>
<rect class="st0" width="26.8" height="31.5"/>
<g class="st1">
	<path class="st2" d="M3.3,31.4v-1c0.6,0.3,1,0.4,1.3,0.5S5.1,31,5.4,31c0.4,0,0.7-0.1,1-0.3c0.2-0.2,0.4-0.5,0.4-0.8
		c0-0.2-0.1-0.5-0.2-0.7s-0.4-0.4-1-0.7l-0.5-0.3c-0.7-0.4-1.1-0.7-1.3-1s-0.3-0.7-0.3-1s0.1-0.7,0.3-1s0.4-0.5,0.7-0.7
		s0.7-0.3,1.2-0.3c0.6,0,1.1,0.1,1.8,0.3v0.9C6.8,25.1,6.4,25,6.2,25s-0.4-0.1-0.6-0.1c-0.4,0-0.7,0.1-0.9,0.3s-0.3,0.4-0.3,0.7
		c0,0.2,0,0.3,0.1,0.5s0.2,0.3,0.4,0.4C5,26.9,5.3,27,5.6,27.2l0.5,0.3c0.7,0.4,1.1,0.7,1.3,1s0.3,0.7,0.3,1.1
		c0,0.6-0.2,1.1-0.6,1.5S6,31.7,5.2,31.7c-0.3,0-0.5,0-0.8-0.1C4.2,31.6,3.8,31.5,3.3,31.4z"/>
	<path class="st2" d="M12,30.9c-0.3,0.3-0.6,0.5-0.9,0.6s-0.6,0.2-0.8,0.2c-0.4,0-0.7-0.1-1.1-0.4s-0.5-0.6-0.5-1.1s0.2-1,0.7-1.3
		s1.2-0.5,2.2-0.5h0.2v-0.6c0-0.3,0-0.4-0.1-0.6c-0.1-0.1-0.2-0.2-0.3-0.3c-0.1-0.1-0.3-0.1-0.5-0.1c-0.5,0-1.1,0.2-1.7,0.5v-0.8
		c0.7-0.3,1.3-0.4,1.9-0.4c0.3,0,0.6,0,0.9,0.1c0.3,0.1,0.5,0.3,0.6,0.5c0.2,0.2,0.2,0.6,0.2,1v2.4c0,0.3,0,0.4,0.1,0.5
		s0.1,0.2,0.2,0.2s0.2,0.1,0.3,0.1c0,0,0.1,0,0.2,0l0.1,0.5c-0.2,0.1-0.5,0.2-0.7,0.2s-0.3-0.1-0.5-0.2S12,31.2,12,30.9z M11.8,30.3
		V29h-0.3c-0.5,0-0.9,0.1-1.3,0.3s-0.5,0.5-0.5,0.8c0,0.2,0.1,0.4,0.3,0.6s0.4,0.2,0.6,0.2c0.2,0,0.4,0,0.6-0.1
		C11.4,30.7,11.6,30.5,11.8,30.3z"/>
	<path class="st2" d="M15.8,31.5l-2-5.3h1l1.5,4.1l1.6-4.1h0.9l-2.1,5.3H15.8z"/>
	<path class="st2" d="M23.8,31.4c-0.7,0.2-1.2,0.3-1.7,0.3c-0.8,0-1.5-0.3-2-0.8c-0.5-0.6-0.7-1.2-0.7-2c0-0.5,0.1-1,0.3-1.4
		s0.5-0.8,0.8-1s0.7-0.3,1.2-0.3c0.6,0,1.1,0.2,1.5,0.7c0.4,0.4,0.6,1.1,0.6,2v0.3h-3.4c0.1,0.5,0.2,0.8,0.3,1.1
		c0.2,0.3,0.4,0.5,0.6,0.6c0.3,0.1,0.6,0.2,1,0.2c0.2,0,0.4,0,0.6-0.1c0.2,0,0.5-0.1,0.9-0.3C23.8,30.7,23.8,31.4,23.8,31.4z
		 M20.5,28.3h2.4c0-0.5-0.1-0.9-0.3-1.1c-0.2-0.2-0.5-0.3-0.8-0.3c-0.4,0-0.7,0.1-0.9,0.4C20.7,27.5,20.5,27.8,20.5,28.3z"/>
</g>
<g>
	<g>
		<g>
			<defs>
				<rect id="SVGID_1_" y="-4.5" width="26.8" height="26.8"/>
			</defs>
			<clipPath id="SVGID_2_">
				<use xlink:href="#SVGID_1_"  style="overflow:visible;"/>
			</clipPath>
			<g class="st3">
				<g>
					<g>
						<defs>
							<rect id="SVGID_3_" y="-4.5" width="26.8" height="26.8"/>
						</defs>
						<clipPath id="SVGID_4_">
							<use xlink:href="#SVGID_3_"  style="overflow:visible;"/>
						</clipPath>
						<g class="st4">
							
								<image style="overflow:visible;enable-background:new    ;" width="267" height="258" xlink:href="EE3758D31A2F3484.png"  transform="matrix(0.1005 0 0 0.104 0 -4.4926)">
							</image>
						</g>
					</g>
				</g>
			</g>
		</g>
	</g>
</g>
</svg>
