<?xml version="1.0" encoding="utf-8"?>
<!-- Generator: Adobe Illustrator 21.1.0, SVG Export Plug-In . SVG Version: 6.00 Build 0)  -->
<svg version="1.1" id="Layer_1" xmlns="http://www.w3.org/2000/svg" xmlns:xlink="http://www.w3.org/1999/xlink" x="0px" y="0px"
	 viewBox="0 0 47.4 39.4" style="enable-background:new 0 0 47.4 39.4;" xml:space="preserve">
<style type="text/css">
	.st0{fill:none;stroke:#FFFFFF;stroke-width:3;stroke-linejoin:round;stroke-miterlimit:10;}
	.st1{enable-background:new    ;}
	.st2{fill:#FFFFFF;}
</style>
<line class="st0" x1="30.1" y1="18.3" x2="13.3" y2="8.5"/>
<line class="st0" x1="13.3" y1="18.5" x2="30.1" y2="8.7"/>
<line class="st0" x1="21.9" y1="23.7" x2="21.8" y2="4.2"/>
<g class="st1">
	<path class="st2" d="M6.4,38c-0.3,0.2-0.6,0.3-0.8,0.3c-0.2,0.1-0.5,0.1-0.7,0.2c-0.3,0-0.5,0.1-0.8,0.1c-1.2,0-2.1-0.4-2.7-1.1
		s-0.8-1.6-0.8-2.7c0-1.1,0.3-2,0.9-2.7c0.6-0.7,1.5-1.1,2.7-1.1c0.6,0,1.4,0.1,2.3,0.3v1c-0.7-0.3-1.2-0.4-1.5-0.4
		s-0.5-0.1-0.8-0.1c-0.9,0-1.5,0.3-1.9,0.9c-0.4,0.6-0.6,1.3-0.6,2.2c0,0.9,0.2,1.6,0.7,2.2c0.4,0.5,1.1,0.8,1.9,0.8
		c0.2,0,0.5,0,0.7-0.1c0.2,0,0.5-0.1,0.7-0.2c0.2-0.1,0.5-0.2,0.8-0.4V38z"/>
	<path class="st2" d="M10,38.5c-0.5,0-0.9-0.1-1.3-0.3s-0.7-0.5-0.9-1c-0.2-0.4-0.3-0.9-0.3-1.5c0-0.5,0.1-1,0.3-1.4
		c0.2-0.4,0.5-0.8,0.9-1C9,33,9.5,32.9,10,32.9c0.5,0,0.9,0.1,1.3,0.3c0.4,0.2,0.7,0.5,0.9,1c0.2,0.4,0.3,0.9,0.3,1.5
		c0,0.5-0.1,1-0.3,1.4c-0.2,0.4-0.5,0.8-0.9,1C11,38.3,10.5,38.5,10,38.5z M10,37.7c0.5,0,0.9-0.2,1.1-0.5c0.3-0.4,0.4-0.9,0.4-1.5
		c0-0.7-0.1-1.2-0.4-1.5s-0.6-0.5-1.1-0.5c-0.5,0-0.8,0.2-1.1,0.5c-0.3,0.4-0.4,0.9-0.4,1.5c0,0.7,0.1,1.2,0.4,1.5
		C9.1,37.6,9.5,37.7,10,37.7z"/>
	<path class="st2" d="M14,38.3V33h1v1c0.2-0.3,0.4-0.6,0.7-0.8c0.3-0.2,0.7-0.3,1.1-0.3c0.2,0,0.4,0,0.6,0.1
		c0.2,0.1,0.3,0.2,0.5,0.3s0.3,0.4,0.4,0.7c0.2-0.3,0.4-0.6,0.7-0.8c0.3-0.2,0.6-0.3,1-0.3c0.4,0,0.7,0.1,1,0.4
		c0.3,0.2,0.5,0.6,0.5,1.2v3.9h-1v-3.7c0-0.4-0.1-0.6-0.2-0.7s-0.3-0.2-0.5-0.2c-0.2,0-0.5,0.1-0.7,0.2c-0.2,0.1-0.5,0.4-0.9,0.8
		v3.6h-1v-3.7c0-0.4-0.1-0.6-0.2-0.7s-0.3-0.2-0.5-0.2c-0.2,0-0.5,0.1-0.7,0.2s-0.5,0.4-0.9,0.9v3.6H14z"/>
	<path class="st2" d="M23.4,38.3V33h1v1c0.2-0.3,0.4-0.6,0.7-0.8c0.3-0.2,0.7-0.3,1.1-0.3c0.2,0,0.4,0,0.6,0.1s0.3,0.2,0.5,0.3
		s0.3,0.4,0.4,0.7c0.2-0.3,0.4-0.6,0.7-0.8c0.3-0.2,0.6-0.3,1-0.3c0.4,0,0.7,0.1,1,0.4c0.3,0.2,0.5,0.6,0.5,1.2v3.9h-1v-3.7
		c0-0.4-0.1-0.6-0.2-0.7s-0.3-0.2-0.5-0.2c-0.2,0-0.5,0.1-0.7,0.2c-0.2,0.1-0.5,0.4-0.9,0.8v3.6h-1v-3.7c0-0.4-0.1-0.6-0.2-0.7
		s-0.3-0.2-0.5-0.2c-0.2,0-0.5,0.1-0.7,0.2c-0.2,0.1-0.5,0.4-0.9,0.9v3.6H23.4z"/>
	<path class="st2" d="M36.6,38.2c-0.7,0.2-1.2,0.3-1.7,0.3c-0.8,0-1.5-0.3-2-0.8c-0.5-0.6-0.7-1.2-0.7-2c0-0.5,0.1-1,0.3-1.4
		c0.2-0.4,0.5-0.8,0.8-1s0.7-0.3,1.2-0.3c0.6,0,1.1,0.2,1.5,0.7c0.4,0.4,0.6,1.1,0.6,2l0,0.3h-3.4c0.1,0.5,0.2,0.8,0.3,1.1
		c0.2,0.3,0.4,0.5,0.6,0.6c0.3,0.1,0.6,0.2,1,0.2c0.2,0,0.4,0,0.6-0.1c0.2,0,0.5-0.1,0.9-0.3V38.2z M33.3,35.1h2.4
		c0-0.5-0.1-0.9-0.3-1.1s-0.5-0.3-0.8-0.3c-0.4,0-0.7,0.1-0.9,0.4C33.5,34.2,33.3,34.6,33.3,35.1z"/>
	<path class="st2" d="M38.3,38.3V33h1v1c0.2-0.4,0.5-0.6,0.9-0.8c0.3-0.2,0.7-0.3,1-0.3c0.4,0,0.8,0.1,1.1,0.4s0.4,0.7,0.4,1.2v3.8
		h-1v-3.5c0-0.4,0-0.6-0.1-0.7c-0.1-0.1-0.2-0.2-0.3-0.3s-0.2-0.1-0.4-0.1c-0.2,0-0.5,0.1-0.8,0.2c-0.3,0.1-0.6,0.5-0.9,0.9v3.4
		H38.3z"/>
	<path class="st2" d="M46.8,38.3c-0.3,0.1-0.6,0.1-0.8,0.1c-0.5,0-0.9-0.1-1.1-0.4c-0.3-0.3-0.4-0.7-0.4-1.2v-3.1h-0.7V33h0.7v-1
		l1-0.1V33h1.4v0.7h-1.4v2.9c0,0.4,0.1,0.6,0.2,0.8c0.1,0.2,0.4,0.2,0.7,0.2c0.1,0,0.3,0,0.5-0.1V38.3z"/>
</g>
</svg>
