<?xml version="1.0" encoding="utf-8"?>
<!-- Generator: Adobe Illustrator 21.0.0, SVG Export Plug-In . SVG Version: 6.00 Build 0)  -->
<svg version="1.1" id="Layer_1" xmlns="http://www.w3.org/2000/svg" xmlns:xlink="http://www.w3.org/1999/xlink" x="0px" y="0px"
	 viewBox="0 0 100 100" style="enable-background:new 0 0 100 100;" xml:space="preserve">
<style type="text/css">
	.st0{opacity:0.1;}
	.st1{opacity:0.1;stroke:#000000;stroke-width:2;stroke-miterlimit:10;}
	.st2{font-family:'EuphemiaUCAS';}
	.st3{font-size:46.7005px;}
</style>
<g id="PGiDbR_1_" class="st0">
	<g>
		<path d="M20,100c-6.3,0-12.6,0-18.9,0c-1,0-1.1-0.2-1.1-1.1C0.1,92.6,0,86.3,0,80c0.4-0.2,0.7-0.7,1.1-0.7
			c3.1-0.1,2.8-2.3,2.8-4.4c0-16.6,0-33.2,0-49.8c0-2.1,0.3-4.3-2.8-4.4c-0.4,0-0.7-0.5-1.1-0.7c0-6.3,0-12.6,0-18.9
			C0,0.2,0.2,0,1.1,0C7.4,0.1,13.7,0,20,0c0.2,0.4,0.7,0.7,0.7,1.1c0.1,3.1,2.3,2.8,4.4,2.8c16.6,0,33.2,0,49.8,0
			c2.1,0,4.3,0.3,4.4-2.8c0-0.4,0.5-0.7,0.7-1.1c6.3,0,12.6,0,18.9,0c1,0,1.1,0.2,1.1,1.1c-0.1,6.3,0,12.6,0,18.9
			c-0.4,0.2-0.7,0.7-1.1,0.7c-3.1,0.1-2.8,2.3-2.8,4.4c0,16.6,0,33.2,0,49.8c0,2.1-0.3,4.3,2.8,4.4c0.4,0,0.7,0.5,1.1,0.7
			c0,6.3,0,12.6,0,18.9c0,1-0.2,1.1-1.1,1.1c-6.3-0.1-12.6,0-18.9,0c-0.2-0.4-0.7-0.7-0.7-1.1c-0.1-3.1-2.3-2.8-4.4-2.8
			c-16.6,0-33.2,0-49.8,0c-2.1,0-4.3-0.3-4.4,2.8C20.7,99.2,20.3,99.6,20,100z M50.2,8.6c-8.9,0-17.8,0-26.6,0
			c-1.8,0-2.6,0.6-2.5,2.4c0.1,2.2,0,4.4,0,6.7c0,2.5-0.8,3.3-3.3,3.4c-2,0-4,0-6,0c-3.1,0-3.1,0-3.1,3.1c0,9,0,17.9,0,26.9
			c0,8.4,0.1,16.9,0,25.3c0,2.1,0.7,2.8,2.7,2.7c2.2-0.1,4.4-0.1,6.7,0c2.2,0.1,3,0.9,3.1,3.1c0.1,2.4,0.1,4.7,0,7.1
			c0,1.6,0.6,2.2,2.2,2.2c17.8,0,35.5,0,53.3,0c1.7,0,2.4-0.6,2.4-2.3c-0.1-2.2,0-4.4,0-6.7c0-2.7,0.8-3.5,3.4-3.5
			c2.1,0,4.3-0.1,6.4,0c1.9,0.1,2.8-0.5,2.6-2.5c-0.1-1.2,0-2.4,0-3.5c0-16.3,0-32.6,0-48.8c0-2.9-0.1-3-3-3c-2.1,0-4.3,0-6.4,0
			c-2,0-3-1-3-3c0-2.2-0.1-4.4,0-6.7c0.1-2.2-0.7-2.8-2.8-2.8C67.5,8.7,58.8,8.6,50.2,8.6z M10.3,16.4c7-0.1,6.1,0.9,6.1-5.9
			c0-6.7,0.9-5.9-5.9-5.9c-6.8,0-6-0.7-6,6.1C4.5,17.2,3.8,16.3,10.3,16.4z M89.4,16.4c6.9-0.1,6.1,0.9,6.1-6.1
			c0-6.4,0.6-5.8-5.9-5.8c-6.9,0-6-0.8-6,6.1C83.6,17.2,82.8,16.3,89.4,16.4z M16.4,89.7c-0.1-7,0.9-6.1-6-6.1
			c-6.6,0-5.9-0.9-5.9,5.9c0,6.8-0.7,6,6.1,6C17.2,95.5,16.3,96.2,16.4,89.7z M89.7,83.6c-7,0.1-6.1-0.9-6.1,6.1
			c0,6.4-0.8,5.8,5.8,5.8c6.8,0,6,0.8,6-6C95.5,82.8,96.2,83.7,89.7,83.6z"/>
	</g>
</g>
<text transform="matrix(1 0 0 1 35.5298 59.0407)" class="st1 st2 st3">^</text>
<text transform="matrix(1 0 0 1 35.5298 59.0407)" class="st1 st2 st3">^</text>
<text transform="matrix(1 0 0 1 35.3726 99.0827)" class="st1 st2 st3">^</text>
<text transform="matrix(1 0 0 1 35.3726 99.0827)" class="st1 st2 st3">^</text>
<text transform="matrix(1 0 0 1 35.5298 78.8464)" class="st1 st2 st3">^</text>
<text transform="matrix(1 0 0 1 35.5298 78.8464)" class="st1 st2 st3">^</text>
</svg>
