<?xml version="1.0" encoding="utf-8"?>
<!-- Generator: Adobe Illustrator 21.1.0, SVG Export Plug-In . SVG Version: 6.00 Build 0)  -->
<svg version="1.1" id="Layer_1" xmlns="http://www.w3.org/2000/svg" xmlns:xlink="http://www.w3.org/1999/xlink" x="0px" y="0px"
	 viewBox="0 0 30.2 34.5" style="enable-background:new 0 0 30.2 34.5;" xml:space="preserve">
<style type="text/css">
	.st0{display:none;fill:#4BD800;}
	.st1{enable-background:new    ;}
	.st2{fill:#FFFFFF;}
	.st3{fill:none;stroke:#FFFFFF;stroke-width:0.75;stroke-linejoin:round;stroke-miterlimit:10;}
	.st4{fill:none;stroke:#FFFFFF;stroke-width:1.5;stroke-linejoin:round;stroke-miterlimit:10;}
</style>
<rect id="XMLID_1_" class="st0" width="30.2" height="34.5"/>
<g class="st1">
	<path class="st2" d="M0.2,33.5v-7.2h2.4c0.9,0,1.6,0.1,2.1,0.4c0.5,0.3,0.9,0.7,1.1,1.2c0.3,0.5,0.4,1.1,0.4,1.9
		c0,0.7-0.1,1.3-0.4,1.9s-0.6,1-1.1,1.4c-0.5,0.3-1.2,0.5-2.1,0.5H0.2z M1.3,32.7h1.3c0.7,0,1.2-0.1,1.5-0.3c0.3-0.2,0.6-0.6,0.8-1
		s0.3-1,0.3-1.6c0-0.5-0.1-1-0.2-1.4c-0.2-0.4-0.4-0.8-0.8-1c-0.4-0.3-1-0.4-2-0.4H1.3V32.7z"/>
	<path class="st2" d="M11.7,33.3c-0.7,0.2-1.2,0.3-1.7,0.3c-0.8,0-1.5-0.3-2-0.8c-0.5-0.6-0.7-1.2-0.7-2c0-0.5,0.1-1,0.3-1.4
		c0.2-0.4,0.5-0.8,0.8-1s0.7-0.3,1.2-0.3c0.6,0,1.1,0.2,1.5,0.7s0.6,1.1,0.6,2l0,0.3H8.3c0.1,0.5,0.2,0.8,0.3,1.1s0.4,0.5,0.6,0.6
		c0.3,0.1,0.6,0.2,1,0.2c0.2,0,0.4,0,0.6-0.1c0.2,0,0.5-0.1,0.9-0.3V33.3z M8.4,30.3h2.4c0-0.5-0.1-0.9-0.3-1.1
		c-0.2-0.2-0.5-0.3-0.8-0.3c-0.4,0-0.7,0.1-0.9,0.4C8.5,29.4,8.4,29.8,8.4,30.3z"/>
	<path class="st2" d="M13.3,33.5v-7.7h1v7.7H13.3z"/>
	<path class="st2" d="M20.2,33.3c-0.7,0.2-1.2,0.3-1.7,0.3c-0.8,0-1.5-0.3-2-0.8c-0.5-0.6-0.7-1.2-0.7-2c0-0.5,0.1-1,0.3-1.4
		c0.2-0.4,0.5-0.8,0.8-1s0.7-0.3,1.2-0.3c0.6,0,1.1,0.2,1.5,0.7s0.6,1.1,0.6,2l0,0.3h-3.4c0.1,0.5,0.2,0.8,0.3,1.1s0.4,0.5,0.6,0.6
		c0.3,0.1,0.6,0.2,1,0.2c0.2,0,0.4,0,0.6-0.1c0.2,0,0.5-0.1,0.9-0.3V33.3z M16.8,30.3h2.4c0-0.5-0.1-0.9-0.3-1.1
		c-0.2-0.2-0.5-0.3-0.8-0.3c-0.4,0-0.7,0.1-0.9,0.4C17,29.4,16.9,29.8,16.8,30.3z"/>
	<path class="st2" d="M24.2,33.5c-0.3,0.1-0.6,0.1-0.8,0.1c-0.5,0-0.9-0.1-1.1-0.4c-0.3-0.3-0.4-0.7-0.4-1.2v-3.1h-0.7v-0.7h0.7v-1
		l1-0.1v1.1h1.4v0.7h-1.4v2.9c0,0.4,0.1,0.6,0.2,0.8c0.1,0.2,0.4,0.2,0.7,0.2c0.1,0,0.3,0,0.5-0.1V33.5z"/>
	<path class="st2" d="M29.5,33.3c-0.7,0.2-1.2,0.3-1.7,0.3c-0.8,0-1.5-0.3-2-0.8c-0.5-0.6-0.7-1.2-0.7-2c0-0.5,0.1-1,0.3-1.4
		c0.2-0.4,0.5-0.8,0.8-1s0.7-0.3,1.2-0.3c0.6,0,1.1,0.2,1.5,0.7s0.6,1.1,0.6,2l0,0.3h-3.4c0.1,0.5,0.2,0.8,0.3,1.1s0.4,0.5,0.6,0.6
		c0.3,0.1,0.6,0.2,1,0.2c0.2,0,0.4,0,0.6-0.1c0.2,0,0.5-0.1,0.9-0.3V33.3z M26.1,30.3h2.4c0-0.5-0.1-0.9-0.3-1.1
		c-0.2-0.2-0.5-0.3-0.8-0.3c-0.4,0-0.7,0.1-0.9,0.4C26.3,29.4,26.2,29.8,26.1,30.3z"/>
</g>
<rect x="6.6" y="5.8" class="st2" width="14.6" height="15.7"/>
<rect x="6.6" y="5.8" class="st3" width="14.6" height="15.7"/>
<line class="st4" x1="4.4" y1="5.5" x2="22.9" y2="5.6"/>
<path class="st4" d="M9,5.2L9,5.2c0.9-2.8,3.9-4.4,6.7-3.6c1.7,0.5,3,1.9,3.5,3.6"/>
</svg>
