<?xml version="1.0" encoding="utf-8"?>
<!-- Generator: Adobe Illustrator 21.1.0, SVG Export Plug-In . SVG Version: 6.00 Build 0)  -->
<svg version="1.1" id="Layer_1" xmlns="http://www.w3.org/2000/svg" xmlns:xlink="http://www.w3.org/1999/xlink" x="0px" y="0px"
	 viewBox="0 0 16.3 3.6" style="enable-background:new 0 0 16.3 3.6;" xml:space="preserve">
<style type="text/css">
	.st0{fill:#A6A6A6;}
</style>
<g>
	<path class="st0" d="M3.5,1.8c0,0.7-0.1,1.2-0.4,1.5S2.4,3.6,1.7,3.6S0.6,3.5,0.4,3.3S0,2.5,0,1.9c0-0.7,0.1-1.2,0.4-1.5
		S1.1,0,1.8,0c0.6,0,1.1,0.1,1.3,0.4S3.5,1.1,3.5,1.8z"/>
	<path class="st0" d="M9.9,1.8c0,0.7-0.1,1.2-0.4,1.5S8.8,3.6,8.1,3.6S7,3.5,6.8,3.3S6.4,2.5,6.4,1.9c0-0.7,0.1-1.2,0.4-1.5
		S7.5,0,8.2,0c0.6,0,1.1,0.1,1.3,0.4S9.9,1.1,9.9,1.8z"/>
	<path class="st0" d="M16.3,1.8c0,0.7-0.1,1.2-0.4,1.5s-0.7,0.4-1.4,0.4s-1.1-0.1-1.4-0.4s-0.4-0.7-0.4-1.4c0-0.7,0.1-1.2,0.4-1.5
		S13.9,0,14.6,0c0.6,0,1.1,0.1,1.3,0.4S16.3,1.1,16.3,1.8z"/>
</g>
</svg>
