<?xml version="1.0" encoding="utf-8"?>
<!-- Generator: Adobe Illustrator 21.1.0, SVG Export Plug-In . SVG Version: 6.00 Build 0)  -->
<svg version="1.1" id="Layer_1" xmlns="http://www.w3.org/2000/svg" xmlns:xlink="http://www.w3.org/1999/xlink" x="0px" y="0px"
	 viewBox="0 0 17.1 37.8" style="enable-background:new 0 0 17.1 37.8;" xml:space="preserve">
<style type="text/css">
	.st0{enable-background:new    ;}
	.st1{fill:#FFFFFF;}
	.st2{fill:#279A00;}
	.st3{fill:none;stroke:#279A00;stroke-width:0.6;stroke-miterlimit:10;}
	.st4{fill:none;stroke:#FFFFFF;stroke-width:0.6;stroke-miterlimit:10;}
</style>
<g class="st0">
	<path class="st1" d="M15.3,13.5H13L8.2,5.1H8.1l-5,8.4H0.9L8,2.3h0.4L15.3,13.5z"/>
</g>
<g class="st0">
	<path class="st2" d="M15.2,34.9H13l-4.8-8.4H8l-5,8.4H0.8l7.1-11.2h0.4L15.2,34.9z"/>
</g>
<g class="st0">
	<path class="st2" d="M15.2,24.7h-2.3l-4.8-8.4H8l-5,8.4H0.8l7.1-11.2h0.4L15.2,24.7z"/>
</g>
<g class="st0">
	<path class="st1" d="M15.2,14.7h-2.3L8.1,6.3H8l-5,8.4H0.8L7.9,3.5h0.4L15.2,14.7z"/>
</g>
<g class="st0">
	<path class="st3" d="M15.2,24.7h-2.3l-4.8-8.3H8l-5,8.4H0.8l7.1-11.3h0.4L15.2,24.7z"/>
</g>
<g class="st0">
	<path class="st3" d="M15.2,34.7h-2.3l-4.8-8.3H8l-5,8.4H0.8l7.1-11.3h0.4L15.2,34.7z"/>
</g>
<g class="st0">
	<path class="st4" d="M15.2,14.7h-2.3L8.1,6.4H8l-5,8.4H0.8L7.9,3.5h0.4L15.2,14.7z"/>
</g>
</svg>
