<?xml version="1.0" encoding="utf-8"?>
<!-- Generator: Adobe Illustrator 21.1.0, SVG Export Plug-In . SVG Version: 6.00 Build 0)  -->
<svg version="1.1" id="Layer_1" xmlns="http://www.w3.org/2000/svg" xmlns:xlink="http://www.w3.org/1999/xlink" x="0px" y="0px"
	 viewBox="0 0 18.3 25.1" style="enable-background:new 0 0 18.3 25.1;" xml:space="preserve">
<style type="text/css">
	.st0{fill:#BFBFBF;}
	.st1{fill:none;stroke:#BFBFBF;stroke-width:0.48;stroke-miterlimit:10;}
</style>
<g>
	<path class="st0" d="M15.7,16.8h-3.4l-0.6,4.5h-1.5l0.6-4.5H6.1l-0.6,4.5H4l0.6-4.5H1.2l0.2-1.4h3.4L5.7,9H2.3l0.2-1.4h3.4l0.6-4.2
		H8L7.4,7.5h4.8l0.6-4.2h1.4l-0.6,4.2h3.4L16.9,9h-3.4l-0.9,6.3H16L15.7,16.8z M6.3,15.3h4.8L12,9H7.2L6.3,15.3z"/>
</g>
<g>
	<path class="st1" d="M15.7,16.8h-3.4l-0.6,4.5h-1.5l0.6-4.5H6.1l-0.6,4.5H4l0.6-4.5H1.2l0.2-1.4h3.4L5.7,9H2.3l0.2-1.4h3.4l0.6-4.2
		H8L7.4,7.5h4.8l0.6-4.2h1.4l-0.6,4.2h3.4L16.9,9h-3.4l-0.9,6.3H16L15.7,16.8z M6.3,15.3h4.8L12,9H7.2L6.3,15.3z"/>
</g>
</svg>
