<?xml version="1.0" encoding="utf-8"?>
<!-- Generator: Adobe Illustrator 21.1.0, SVG Export Plug-In . SVG Version: 6.00 Build 0)  -->
<svg version="1.1" id="Layer_1" xmlns="http://www.w3.org/2000/svg" xmlns:xlink="http://www.w3.org/1999/xlink" x="0px" y="0px"
	 viewBox="0 0 23.8 35.5" style="enable-background:new 0 0 23.8 35.5;" xml:space="preserve">
<style type="text/css">
	.st0{enable-background:new    ;}
	.st1{fill:#BFBFBF;}
	.st2{font-family:'EuphemiaUCAS';}
	.st3{font-size:20px;}
	.st4{fill:none;stroke:#BFBFBF;stroke-width:0.48;stroke-miterlimit:10;}
</style>
<g class="st0">
	<path class="st1" d="M3.3,33v-6.5H0.7v-0.8h6.2v0.8H4.3V33H3.3z"/>
	<path class="st1" d="M10.7,32.3c-0.3,0.3-0.6,0.5-0.9,0.6S9.3,33.1,9,33.1c-0.4,0-0.7-0.1-1.1-0.4s-0.5-0.6-0.5-1.1
		c0-0.5,0.2-1,0.7-1.3c0.5-0.3,1.2-0.5,2.2-0.5h0.2v-0.6c0-0.3,0-0.4-0.1-0.6c-0.1-0.1-0.2-0.2-0.3-0.3c-0.1-0.1-0.3-0.1-0.5-0.1
		c-0.5,0-1.1,0.2-1.7,0.5V28c0.7-0.3,1.3-0.4,1.9-0.4c0.3,0,0.6,0,0.9,0.1c0.3,0.1,0.5,0.3,0.6,0.5c0.2,0.2,0.2,0.6,0.2,1v2.4
		c0,0.3,0,0.4,0.1,0.5s0.1,0.2,0.2,0.2s0.2,0.1,0.3,0.1c0,0,0.1,0,0.2,0l0.1,0.5c-0.2,0.1-0.5,0.2-0.7,0.2c-0.2,0-0.3-0.1-0.5-0.2
		S10.7,32.6,10.7,32.3z M10.5,31.8v-1.4l-0.3,0c-0.5,0-0.9,0.1-1.3,0.3s-0.5,0.5-0.5,0.8c0,0.2,0.1,0.4,0.3,0.6
		c0.2,0.2,0.4,0.2,0.6,0.2c0.2,0,0.4,0,0.6-0.1C10.1,32.1,10.3,32,10.5,31.8z"/>
	<path class="st1" d="M13.4,34.8l0.1-0.8c0.6,0.3,1.1,0.4,1.7,0.4c0.6,0,1-0.2,1.3-0.5c0.2-0.3,0.4-0.7,0.4-1.3v-0.8
		c-0.1,0.3-0.4,0.6-0.7,0.8c-0.3,0.2-0.7,0.3-1.1,0.3c-0.7,0-1.3-0.3-1.6-0.8C13.2,31.6,13,31,13,30.3c0-0.5,0.1-1,0.3-1.4
		s0.5-0.8,0.8-1c0.3-0.2,0.8-0.3,1.2-0.3c0.2,0,0.4,0,0.6,0.1s0.3,0.1,0.5,0.2s0.3,0.2,0.5,0.4v-0.6h1v3.9c0,1.1-0.1,1.9-0.3,2.3
		s-0.5,0.7-0.9,0.9c-0.4,0.2-0.9,0.3-1.4,0.3c-0.2,0-0.4,0-0.6,0s-0.4,0-0.6-0.1C13.9,34.9,13.7,34.8,13.4,34.8z M16.9,31.2V29
		c-0.2-0.2-0.4-0.4-0.7-0.5c-0.2-0.1-0.5-0.2-0.7-0.2c-0.4,0-0.8,0.2-1,0.5c-0.3,0.3-0.4,0.8-0.4,1.5c0,0.5,0.1,0.9,0.3,1.2
		c0.2,0.3,0.5,0.5,1,0.5c0.3,0,0.6-0.1,0.8-0.2S16.6,31.4,16.9,31.2z"/>
	<path class="st1" d="M19.5,32.8v-0.9c0.6,0.3,1.2,0.5,1.6,0.5c0.3,0,0.5-0.1,0.7-0.2c0.2-0.2,0.3-0.3,0.3-0.6c0-0.1,0-0.3-0.1-0.4
		c-0.1-0.1-0.3-0.3-0.6-0.4l-0.6-0.2c-0.4-0.2-0.8-0.4-0.9-0.6c-0.2-0.2-0.3-0.5-0.3-0.9c0-0.4,0.2-0.8,0.5-1.1
		c0.3-0.3,0.8-0.4,1.4-0.4c0.3,0,0.7,0,1.1,0.1l0.2,0v0.8c-0.5-0.2-1-0.2-1.3-0.2c-0.3,0-0.5,0.1-0.7,0.2c-0.2,0.1-0.2,0.3-0.2,0.5
		c0,0.1,0.1,0.3,0.2,0.4c0.1,0.1,0.3,0.2,0.5,0.3l0.5,0.2c0.6,0.3,1,0.5,1.2,0.8c0.2,0.3,0.3,0.5,0.3,0.8c0,0.3-0.1,0.6-0.2,0.8
		c-0.2,0.2-0.4,0.4-0.7,0.6c-0.3,0.1-0.7,0.2-1,0.2C20.6,33.1,20.1,33,19.5,32.8z"/>
</g>
<text transform="matrix(1 0 0 1 3.7356 17.8177)" class="st1 st2 st3">#</text>
<text transform="matrix(1 0 0 1 3.7356 17.8177)" class="st4 st2 st3">#</text>
</svg>
