<?xml version="1.0" encoding="utf-8"?>
<!-- Generator: Adobe Illustrator 21.1.0, SVG Export Plug-In . SVG Version: 6.00 Build 0)  -->
<svg version="1.1" id="Layer_1" xmlns="http://www.w3.org/2000/svg" xmlns:xlink="http://www.w3.org/1999/xlink" x="0px" y="0px"
	 viewBox="0 0 29 31" style="enable-background:new 0 0 29 31;" xml:space="preserve">
<style type="text/css">
	.st0{display:none;fill:#CBCBCB;}
	.st1{display:none;fill:none;stroke:#CBCBCB;stroke-linejoin:round;stroke-miterlimit:10;}
	.st2{display:none;fill:none;stroke:#CBCBCB;stroke-width:1.5;stroke-linejoin:round;stroke-miterlimit:10;}
	.st3{fill:#CBCBCB;}
</style>
<path class="st0" d="M20.2,13.7c-1.4-1.2-3.3-2-5.5-2c-2.1,0-3.9,0.7-5.4,1.9c-1.6,1.3-2.6,3.2-2.6,5.4c0,2,0.9,3.8,2.3,5.1
	c1.4,1.3,3.4,2.1,5.7,2.1s4.2-0.8,5.7-2.1c1.4-1.3,2.3-3.1,2.3-5.1C22.7,16.9,21.7,15,20.2,13.7z M17,21.1c-0.6,0.6-1.4,0.9-2.2,0.9
	c-0.9,0-1.7-0.3-2.2-0.9c-0.6-0.6-0.9-1.4-0.9-2.2c0-1.8,1.4-3.2,3.2-3.2s3.2,1.4,3.2,3.2C18,19.7,17.6,20.5,17,21.1z"/>
<path class="st1" d="M20.2,13.7c-1.4-1.2-3.3-2-5.5-2c-2.1,0-3.9,0.7-5.4,1.9c-1.6,1.3-2.6,3.2-2.6,5.4c0,2,0.9,3.8,2.3,5.1
	c1.4,1.3,3.4,2.1,5.7,2.1s4.2-0.8,5.7-2.1c1.4-1.3,2.3-3.1,2.3-5.1C22.7,16.9,21.7,15,20.2,13.7z M17,21.1c-0.6,0.6-1.4,0.9-2.2,0.9
	c-0.9,0-1.7-0.3-2.2-0.9c-0.6-0.6-0.9-1.4-0.9-2.2c0-1.8,1.4-3.2,3.2-3.2s3.2,1.4,3.2,3.2C18,19.7,17.6,20.5,17,21.1z"/>
<path class="st2" d="M10.1,14.9L10.1,14.9c-2.2-2.6-1.9-6.4,0.6-8.6c2.6-2.2,6.4-1.9,8.6,0.7c2,2.4,1.9,5.8-0.2,8.1"/>
<path class="st1" d="M20.2,13.7c-1.4-1.2-3.3-2-5.5-2c-2.1,0-3.9,0.7-5.4,1.9c-1.6,1.3-2.6,3.2-2.6,5.4c0,2,0.9,3.8,2.3,5.1
	c1.4,1.3,3.4,2.1,5.7,2.1s4.2-0.8,5.7-2.1c1.4-1.3,2.3-3.1,2.3-5.1C22.7,16.9,21.7,15,20.2,13.7z M17,21.1c-0.6,0.6-1.4,0.9-2.2,0.9
	c-0.9,0-1.7-0.3-2.2-0.9c-0.6-0.6-0.9-1.4-0.9-2.2c0-1.8,1.4-3.2,3.2-3.2s3.2,1.4,3.2,3.2C18,19.7,17.6,20.5,17,21.1z"/>
<path class="st2" d="M10.1,14.9L10.1,14.9c-2.2-2.6-1.9-6.4,0.6-8.6c2.6-2.2,6.4-1.9,8.6,0.7c2,2.4,1.9,5.8-0.2,8.1"/>
<g id="_x31_0nkFp.tif">
	<g>
		<path class="st3" d="M14.1,4.1c0.4,0,0.7,0,1.1,0c0.3,0.1,0.5,0.1,0.6,0.1c3.6,0.6,5.5,3.7,5.6,6.5c0,0.9-0.1,1.8-0.5,2.6
			c-0.1,0.1,0,0.2,0.1,0.3c1,1,1.7,2.2,2,3.6c0.1,0.4,0.2,0.7,0.2,1.1s0,0.7,0,1.1c0,0.3-0.1,0.6-0.1,0.8c-0.5,2.4-2.2,4.5-4.3,5.6
			c-1.1,0.6-2.3,0.8-3.6,0.9c-1,0.1-2,0-3-0.3c-1.7-0.5-3.1-1.3-4.3-2.5c-1-1-1.7-2.1-2-3.5c-0.1-0.4-0.2-0.7-0.2-1.1s0-0.7,0-1.1
			c0-0.3,0.1-0.6,0.2-0.9c0.3-1.6,1.1-2.9,2.2-3.9c0.1-0.1,0.1-0.2,0.1-0.3c-0.5-1.3-0.6-2.6-0.3-3.9c0.6-2.6,2.9-4.4,5.1-5
			C13.3,4.2,13.7,4.2,14.1,4.1z M9.3,10.8c0,0.7,0.2,1.4,0.5,1.9C9.8,13,9.8,13,10,12.9c1.8-1.1,3.8-1.5,5.8-1.2
			c1.3,0.2,2.5,0.6,3.6,1.4c0.1,0.1,0.1,0,0.2-0.1c0.3-0.6,0.5-1.2,0.5-1.8c0-0.9-0.2-1.8-0.6-2.6c-1.1-2.3-3.5-3.3-5.8-2.9
			c-1,0.3-1.8,0.6-2.6,1.3C9.9,8,9.3,9.3,9.3,10.8z M11.5,18.7c0,0.2,0,0.4,0.1,0.6c0.4,1.7,2,2.8,3.8,2.5c1.6-0.3,2.8-1.7,2.6-3.3
			c-0.1-0.6-0.3-1.3-0.7-1.8c-0.8-0.9-1.8-1.2-3-1.1C12.7,15.7,11.5,17,11.5,18.7z"/>
	</g>
</g>
</svg>
