<?xml version="1.0" encoding="utf-8"?>
<!-- Generator: Adobe Illustrator 22.0.1, SVG Export Plug-In . SVG Version: 6.00 Build 0)  -->
<svg version="1.1" id="Layer_1" xmlns="http://www.w3.org/2000/svg" xmlns:xlink="http://www.w3.org/1999/xlink" x="0px" y="0px"
	 viewBox="0 0 20.2 27.6" style="enable-background:new 0 0 20.2 27.6;" xml:space="preserve">
<style type="text/css">
	.st0{fill:#CBCBCB;}
	.st1{fill:none;stroke:#CBCBCB;stroke-linejoin:round;stroke-miterlimit:10;}
	.st2{fill:none;stroke:#CBCBCB;stroke-width:1.5;stroke-linejoin:round;stroke-miterlimit:10;}
	.st3{fill:#FFFFFF;}
</style>
<path class="st0" d="M1.8,16.9L1.8,16.9c0-4,3.6-7.3,8-7.3s8,3.3,8,7.3l0,0c0,4-3.6,7.3-8,7.3l0,0C5.4,24.1,1.8,20.9,1.8,16.9
	L1.8,16.9z"/>
<path class="st1" d="M1.8,16.9L1.8,16.9c0-4,3.6-7.3,8-7.3s8,3.3,8,7.3l0,0c0,4-3.6,7.3-8,7.3l0,0C5.4,24.1,1.8,20.9,1.8,16.9
	L1.8,16.9z"/>
<path class="st2" d="M5.3,12.7L5.3,12.7C3.1,10.2,3.4,6.3,6,4.2c2.5-2.2,6.4-1.9,8.5,0.7c2,2.4,1.9,5.8-0.2,8.1"/>
<path class="st3" d="M6.8,16.7L6.8,16.7c0-1.8,1.4-3.2,3.2-3.2s3.2,1.4,3.2,3.2l0,0c0,1.8-1.4,3.2-3.2,3.2l0,0
	C8.2,19.9,6.8,18.4,6.8,16.7L6.8,16.7z"/>
</svg>
