<?xml version="1.0" encoding="utf-8"?>
<!-- Generator: Adobe Illustrator 21.1.0, SVG Export Plug-In . SVG Version: 6.00 Build 0)  -->
<svg version="1.1" id="Layer_1" xmlns="http://www.w3.org/2000/svg" xmlns:xlink="http://www.w3.org/1999/xlink" x="0px" y="0px"
	 viewBox="0 0 19 25" style="enable-background:new 0 0 19 25;" xml:space="preserve">
<style type="text/css">
	.st0{fill-rule:evenodd;clip-rule:evenodd;fill:#CBCBCB;}
	.st1{fill:none;stroke:#CBCBCB;stroke-width:1;stroke-linejoin:round;stroke-miterlimit:10;}
	.st2{fill:none;stroke:#CBCBCB;stroke-width:1.5;stroke-linejoin:round;stroke-miterlimit:10;}
</style>
<path class="st0" d="M15,10.7c-1.4-1.2-3.3-2-5.5-2c-2.1,0-3.9,0.7-5.4,1.9c-1.6,1.3-2.6,3.2-2.6,5.4c0,2,0.9,3.8,2.3,5.1
	c1.4,1.3,3.4,2.1,5.7,2.1s4.2-0.8,5.7-2.1c1.4-1.3,2.3-3.1,2.3-5.1C17.5,13.9,16.5,12,15,10.7z M11.9,18.1c-0.6,0.6-1.4,0.9-2.2,0.9
	c-0.9,0-1.7-0.3-2.2-0.9c-0.6-0.6-0.9-1.4-0.9-2.2c0-1.8,1.4-3.2,3.2-3.2c1.8,0,3.2,1.4,3.2,3.2C12.8,16.7,12.5,17.5,11.9,18.1z"/>
<path class="st1" d="M15,10.7c-1.4-1.2-3.3-2-5.5-2c-2.1,0-3.9,0.7-5.4,1.9c-1.6,1.3-2.6,3.2-2.6,5.4c0,2,0.9,3.8,2.3,5.1
	c1.4,1.3,3.4,2.1,5.7,2.1s4.2-0.8,5.7-2.1c1.4-1.3,2.3-3.1,2.3-5.1C17.5,13.9,16.5,12,15,10.7z M11.9,18.1c-0.6,0.6-1.4,0.9-2.2,0.9
	c-0.9,0-1.7-0.3-2.2-0.9c-0.6-0.6-0.9-1.4-0.9-2.2c0-1.8,1.4-3.2,3.2-3.2c1.8,0,3.2,1.4,3.2,3.2C12.8,16.7,12.5,17.5,11.9,18.1z"/>
<path class="st2" d="M5,11.9L5,11.9C2.8,9.3,3.1,5.5,5.6,3.3C8.2,1.1,12,1.4,14.2,4c2,2.4,1.9,5.8-0.2,8.1"/>
<path class="st1" d="M15,10.7c-1.4-1.2-3.3-2-5.5-2c-2.1,0-3.9,0.7-5.4,1.9c-1.6,1.3-2.6,3.2-2.6,5.4c0,2,0.9,3.8,2.3,5.1
	c1.4,1.3,3.4,2.1,5.7,2.1s4.2-0.8,5.7-2.1c1.4-1.3,2.3-3.1,2.3-5.1C17.5,13.9,16.5,12,15,10.7z M11.9,18.1c-0.6,0.6-1.4,0.9-2.2,0.9
	c-0.9,0-1.7-0.3-2.2-0.9c-0.6-0.6-0.9-1.4-0.9-2.2c0-1.8,1.4-3.2,3.2-3.2c1.8,0,3.2,1.4,3.2,3.2C12.8,16.7,12.5,17.5,11.9,18.1z"/>
<path class="st2" d="M5,11.9L5,11.9C2.8,9.3,3.1,5.5,5.6,3.3C8.2,1.1,12,1.4,14.2,4c2,2.4,1.9,5.8-0.2,8.1"/>
</svg>
