<?xml version="1.0" encoding="utf-8"?>
<!-- Generator: Adobe Illustrator 21.1.0, SVG Export Plug-In . SVG Version: 6.00 Build 0)  -->
<svg version="1.1" id="Layer_1" xmlns="http://www.w3.org/2000/svg" xmlns:xlink="http://www.w3.org/1999/xlink" x="0px" y="0px"
	 viewBox="0 0 12.2 12.5" style="enable-background:new 0 0 12.2 12.5;" xml:space="preserve">
<style type="text/css">
	.st0{fill:#CBCBCB;}
</style>
<g>
	<path class="st0" d="M11.8,9.3c-0.4,0.8-1.1,1.4-2,1.9c-0.9,0.5-2,0.7-3.2,0.7c-1.9,0-3.4-0.5-4.4-1.4S0.7,8.3,0.7,6.7
		c0-1,0.2-2,0.7-3s1.1-1.7,2-2.2s1.9-0.8,3.1-0.8C8,0.7,9.2,1.1,10.1,2c0.9,0.9,1.4,2,1.4,3.2c0,1.1-0.4,2.1-1.1,2.9
		C9.6,9,8.8,9.4,8,9.4c-0.7,0-1.1-0.3-1.1-1c-0.6,0.6-1.2,1-1.8,1c-0.6,0-1.1-0.3-1.5-0.8S2.9,7.5,2.9,6.8c0-0.9,0.3-1.8,0.9-2.6
		s1.3-1.2,2.1-1.2c0.7,0,1.3,0.4,1.8,1.1l0.2-0.9h1C8.4,5.9,8.1,7.4,8,7.6S7.9,8,7.9,8.1c0,0.1,0,0.2,0.1,0.3s0.2,0.1,0.3,0.1
		c0.2,0,0.6-0.2,0.9-0.5s0.7-0.7,0.9-1.2c0.2-0.5,0.4-1,0.4-1.6c0-1.1-0.4-2-1.2-2.7c-0.8-0.7-1.8-1-3-1C5,1.5,3.8,2,2.9,3
		S1.5,5.2,1.5,6.6C1.5,8,2,9.2,2.9,9.9s2.1,1.2,3.7,1.2c0.9,0,1.8-0.2,2.5-0.5s1.3-0.7,1.7-1.3H11.8z M5.2,8.6c0.5,0,1-0.3,1.5-0.9
		s0.7-1.3,0.7-2.1c0-0.5-0.1-0.9-0.4-1.2S6.4,3.9,6,3.9c-0.6,0-1.1,0.3-1.5,1S4,6.2,4,6.9c0,0.5,0.1,0.9,0.4,1.2S4.9,8.6,5.2,8.6z"
		/>
</g>
</svg>
