<?xml version="1.0" encoding="utf-8"?>
<!-- Generator: Adobe Illustrator 21.1.0, SVG Export Plug-In . SVG Version: 6.00 Build 0)  -->
<svg version="1.1" id="Layer_1" xmlns="http://www.w3.org/2000/svg" xmlns:xlink="http://www.w3.org/1999/xlink" x="0px" y="0px"
	 viewBox="0 0 16 35.9" style="enable-background:new 0 0 16 35.9;" xml:space="preserve">
<style type="text/css">
	
		.st0{display:none;clip-path:url(#SVGID_2_);fill:none;stroke:#40E400;stroke-width:0.5;stroke-linejoin:round;stroke-miterlimit:10;}
	.st1{clip-path:url(#SVGID_2_);}
	.st2{fill:#FFFFFF;}
	.st3{font-family:'EuphemiaUCAS';}
	.st4{font-size:25px;}
	.st5{fill:none;stroke:#FFFFFF;stroke-width:0.6;stroke-miterlimit:10;}
	.st6{fill:#279A00;}
	.st7{fill:none;stroke:#279A00;stroke-width:0.6;stroke-miterlimit:10;}
</style>
<g>
	<defs>
		<rect id="SVGID_1_" x="-398.6" y="-589.6" width="612" height="792"/>
	</defs>
	<clipPath id="SVGID_2_">
		<use xlink:href="#SVGID_1_"  style="display:none;overflow:visible;"/>
	</clipPath>
	<path class="st0" d="M32.3,17.4L32.3,17.4c0,13.5-11,24.5-24.5,24.5s-24.5-11-24.5-24.5l0,0c0-13.5,11-24.5,24.5-24.5l0,0
		C21.4-7.1,32.3,3.9,32.3,17.4L32.3,17.4z"/>
	<g class="st1">
		<text transform="matrix(1 0 0 1 -8.673096e-02 20.6185)" class="st2 st3 st4">^</text>
	</g>
	<g class="st1">
		<text transform="matrix(1 0 0 1 -8.673096e-02 20.6185)" class="st5 st3 st4">^</text>
	</g>
	<g class="st1">
		<text transform="matrix(1 0 0 1 -0.1711 42.0543)" class="st6 st3 st4">^</text>
	</g>
	<g class="st1">
		<text transform="matrix(1 0 0 1 -0.1711 42.0543)" class="st7 st3 st4">^</text>
	</g>
	<g class="st1">
		<text transform="matrix(1 0 0 1 -8.673096e-02 31.2213)" class="st6 st3 st4">^</text>
	</g>
	<g class="st1">
		<text transform="matrix(1 0 0 1 -8.673096e-02 31.2213)" class="st7 st3 st4">^</text>
	</g>
</g>
</svg>
