<?xml version="1.0" encoding="utf-8"?>
<!-- Generator: Adobe Illustrator 21.1.0, SVG Export Plug-In . SVG Version: 6.00 Build 0)  -->
<svg version="1.1" id="Layer_1" xmlns="http://www.w3.org/2000/svg" xmlns:xlink="http://www.w3.org/1999/xlink" x="0px" y="0px"
	 viewBox="0 0 21.5 13.5" style="enable-background:new 0 0 21.5 13.5;" xml:space="preserve">
<style type="text/css">
	.st0{fill:#CBCBCB;}
</style>
<path class="st0" d="M0.3,0.1c0.3,0.3,0.6,0.5,0.9,0.8c1.8,1.5,3.5,3,5.3,4.5c1.4,1.2,2.7,2.3,4.1,3.5c0.1,0.1,0.2,0.1,0.3,0
	c1.3-1.1,2.6-2.2,3.9-3.3c1.6-1.3,3.1-2.6,4.7-4c0.6-0.5,1.2-1,1.8-1.6c0,0,0.1,0,0,0c-0.1,0-0.2,0-0.2,0C14.2,0,7.4,0,0.6,0
	C0.5,0,0.4,0,0.3,0.1C0.3,0,0.3,0,0.3,0.1z M0,1.4c0,0.1,0,0.1,0,0.2c0,3.9,0,7.8,0,11.7c0,0.2,0.1,0.2,0.3,0.2c7,0,14,0,21,0
	c0.2,0,0.3-0.1,0.3-0.3c0-3.8,0-7.7,0-11.5c0-0.1,0-0.1,0-0.2c0,0-0.1,0.1-0.1,0.1c-1,0.8-2,1.7-2.9,2.5c-2.5,2.1-5,4.2-7.5,6.3
	c-0.1,0.1-0.2,0.1-0.3,0c-1-0.9-2.1-1.8-3.2-2.7C5.5,6.1,3.6,4.5,1.8,2.9C1.2,2.4,0.6,1.9,0,1.4z"/>
</svg>
