<?xml version="1.0" encoding="utf-8"?>
<!-- Generator: Adobe Illustrator 21.1.0, SVG Export Plug-In . SVG Version: 6.00 Build 0)  -->
<svg version="1.1" id="Layer_1" xmlns="http://www.w3.org/2000/svg" xmlns:xlink="http://www.w3.org/1999/xlink" x="0px" y="0px"
	 viewBox="0 0 17.1 37.8" style="enable-background:new 0 0 17.1 37.8;" xml:space="preserve">
<style type="text/css">
	.st0{display:none;fill:#279A00;enable-background:new    ;}
	.st1{font-family:'EuphemiaUCAS';}
	.st2{font-size:25px;}
	.st3{display:none;}
	.st4{enable-background:new    ;}
	.st5{fill:#279A00;}
	.st6{fill:#FFFFFF;}
	.st7{fill:none;stroke:#279A00;stroke-width:0.6;stroke-miterlimit:10;}
	.st8{fill:none;stroke:#FFFFFF;stroke-width:0.6;stroke-miterlimit:10;}
</style>
<text transform="matrix(1 0 0 1 0 44.1793)" class="st0 st1 st2">^</text>
<rect x="-1.5" y="-1.7" class="st3" width="20.7" height="41.8"/>
<g class="st4">
	<path class="st5" d="M15.2,24.7h-2.3l-4.8-8.4H8l-5,8.4H0.8l7.1-11.2h0.4L15.2,24.7z"/>
</g>
<g class="st4">
	<path class="st6" d="M15.2,14.7h-2.3L8.1,6.3H8l-5,8.4H0.8L7.9,3.5h0.4L15.2,14.7z"/>
</g>
<g class="st4">
	<path class="st7" d="M15.2,24.7h-2.3l-4.8-8.3H8l-5,8.4H0.8l7.1-11.3h0.4L15.2,24.7z"/>
</g>
<g class="st4">
	<path class="st8" d="M15.2,14.7h-2.3L8.1,6.4H8l-5,8.4H0.8L7.9,3.5h0.4L15.2,14.7z"/>
</g>
</svg>
