<?xml version="1.0" encoding="utf-8"?>
<!-- Generator: Adobe Illustrator 21.1.0, SVG Export Plug-In . SVG Version: 6.00 Build 0)  -->
<svg version="1.1" id="Layer_1" xmlns="http://www.w3.org/2000/svg" xmlns:xlink="http://www.w3.org/1999/xlink" x="0px" y="0px"
	 viewBox="0 0 16.2 34.5" style="enable-background:new 0 0 16.2 34.5;" xml:space="preserve">
<style type="text/css">
	.st0{enable-background:new    ;}
	.st1{fill:#AC5BA4;}
	.st2{fill:none;stroke:#AC5BA4;stroke-width:0.6;stroke-miterlimit:10;}
	.st3{fill:#FFFFFF;}
	.st4{fill:none;stroke:#FFFFFF;stroke-width:0.6;stroke-miterlimit:10;}
</style>
<g class="st0">
	<path class="st1" d="M15.3,12.2H13L8.2,3.9H8.1l-5,8.4H0.9L8,1h0.4L15.3,12.2z"/>
</g>
<g class="st0">
	<path class="st2" d="M15.3,12.2H13L8.2,3.9H8.1l-5,8.4H0.9L8,1h0.4L15.3,12.2z"/>
</g>
<g class="st0">
	<path class="st3" d="M15.2,33.7H13l-4.8-8.4H8l-5,8.4H0.8l7.1-11.2h0.4L15.2,33.7z"/>
</g>
<g class="st0">
	<path class="st4" d="M15.2,33.7H13l-4.8-8.4H8l-5,8.4H0.8l7.1-11.2h0.4L15.2,33.7z"/>
</g>
<g class="st0">
	<path class="st1" d="M15.3,22.8H13l-4.8-8.4H8.1l-5,8.4H0.9L8,11.6h0.4L15.3,22.8z"/>
</g>
<g class="st0">
	<path class="st2" d="M15.3,22.8H13l-4.8-8.4H8.1l-5,8.4H0.9L8,11.6h0.4L15.3,22.8z"/>
</g>
</svg>
