<?xml version="1.0" encoding="utf-8"?>
<!-- Generator: Adobe Illustrator 16.0.0, SVG Export Plug-In . SVG Version: 6.00 Build 0)  -->
<!DOCTYPE svg PUBLIC "-//W3C//DTD SVG 1.1//EN" "http://www.w3.org/Graphics/SVG/1.1/DTD/svg11.dtd">
<svg version="1.1" id="Layer_1" xmlns="http://www.w3.org/2000/svg" xmlns:xlink="http://www.w3.org/1999/xlink" x="0px" y="0px"
	 width="65.969px" height="71.935px" viewBox="1.031 39.5 65.969 71.935" enable-background="new 1.031 39.5 65.969 71.935"
	 xml:space="preserve">
<g display="none">
	<path display="inline" fill="#BFBFBF" d="M-75.048,105.666v-1.904c1.143,0.572,1.905,0.762,2.477,0.953
		c0.571,0.189,0.952,0.189,1.333,0.189c0.762,0,1.333-0.189,1.905-0.57c0.381-0.382,0.762-0.953,0.762-1.523
		c0-0.381-0.19-0.953-0.381-1.334c-0.191-0.381-0.762-0.762-1.905-1.334l-0.953-0.57c-1.333-0.762-2.095-1.333-2.476-1.905
		c-0.381-0.569-0.571-1.332-0.571-1.903c0-0.572,0.19-1.334,0.571-1.904c0.381-0.572,0.762-0.953,1.333-1.334
		c0.571-0.381,1.333-0.571,2.286-0.571c1.143,0,2.095,0.19,3.428,0.571v1.715c-0.952-0.381-1.714-0.572-2.095-0.762
		c-0.381-0.191-0.762-0.191-1.143-0.191c-0.762,0-1.333,0.191-1.714,0.572s-0.571,0.762-0.571,1.332c0,0.382,0,0.572,0.19,0.953
		c0.19,0.381,0.381,0.571,0.762,0.762c0.381,0.191,0.762,0.572,1.333,0.762l0.952,0.572c1.333,0.762,2.095,1.333,2.476,1.904
		c0.381,0.571,0.572,1.334,0.572,2.096c0,1.143-0.381,2.096-1.143,2.857c-0.762,0.762-2.095,1.143-3.619,1.143
		c-0.571,0-0.952,0-1.523-0.19C-73.333,106.238-74.095,106.048-75.048,105.666z"/>
	<path display="inline" fill="#BFBFBF" d="M-63.81,106.048V91.381h1.905v6.477c0.381-0.762,0.953-1.143,1.714-1.522
		c0.571-0.382,1.333-0.571,1.905-0.571c0.762,0,1.524,0.189,2.095,0.762c0.571,0.572,0.762,1.334,0.762,2.285v7.238h-1.905v-6.667
		c0-0.762,0-1.143-0.19-1.333c-0.19-0.189-0.381-0.382-0.571-0.57c-0.19-0.191-0.381-0.191-0.762-0.191s-0.953,0.191-1.524,0.381
		c-0.571,0.191-1.143,0.953-1.714,1.715v6.477h-1.714L-63.81,106.048L-63.81,106.048z"/>
	<path display="inline" fill="#BFBFBF" d="M-46.667,104.715c-0.572,0.57-1.143,0.951-1.714,1.143
		c-0.571,0.19-1.143,0.381-1.524,0.381c-0.762,0-1.333-0.189-2.095-0.762s-0.952-1.143-0.952-2.096c0-0.951,0.381-1.904,1.333-2.477
		c0.953-0.57,2.286-0.952,4.19-0.952h0.381v-1.142c0-0.571,0-0.763-0.19-1.145c-0.19-0.189-0.381-0.381-0.571-0.57
		c-0.19-0.191-0.571-0.191-0.952-0.191c-0.953,0-2.095,0.382-3.238,0.953v-1.522c1.333-0.571,2.476-0.763,3.619-0.763
		c0.571,0,1.143,0,1.714,0.189c0.571,0.19,0.952,0.572,1.143,0.953c0.381,0.381,0.381,1.143,0.381,1.904v4.57
		c0,0.571,0,0.763,0.191,0.953c0.19,0.19,0.19,0.381,0.381,0.381s0.381,0.19,0.571,0.19c0,0,0.19,0,0.381,0l0.19,0.951
		c-0.381,0.19-0.952,0.382-1.333,0.382c-0.381,0-0.572-0.189-0.953-0.382C-46.095,105.477-46.667,105.285-46.667,104.715z
		 M-47.048,103.762v-2.666h-0.571c-0.952,0-1.714,0.189-2.476,0.57c-0.762,0.382-0.953,0.953-0.953,1.523
		c0,0.381,0.191,0.763,0.572,1.145c0.381,0.381,0.762,0.381,1.143,0.381s0.762,0,1.143-0.191
		C-47.81,104.334-47.429,103.952-47.048,103.762z"/>
	<path display="inline" fill="#BFBFBF" d="M-41.524,106.048V95.952h1.905v1.905c0.381-0.762,0.762-1.144,1.333-1.523
		c0.571-0.382,1.143-0.572,1.714-0.572c0.19,0,0.381,0,0.571,0v1.715c-0.381-0.19-0.571-0.19-0.762-0.19
		c-0.572,0-1.143,0.19-1.524,0.571s-0.953,0.953-1.333,1.523v6.667H-41.524z"/>
	<path display="inline" fill="#BFBFBF" d="M-26.095,105.666c-1.333,0.382-2.286,0.572-3.238,0.572c-1.523,0-2.857-0.572-3.81-1.523
		c-0.952-1.145-1.333-2.285-1.333-3.811c0-0.952,0.19-1.904,0.571-2.666c0.381-0.762,0.953-1.523,1.524-1.904
		c0.571-0.382,1.333-0.572,2.286-0.572c1.143,0,2.095,0.381,2.857,1.334c0.762,0.762,1.143,2.096,1.143,3.809v0.572h-6.476
		c0.19,0.953,0.381,1.523,0.571,2.096c0.381,0.57,0.762,0.951,1.143,1.144c0.571,0.188,1.143,0.382,1.905,0.382
		c0.381,0,0.762,0,1.143-0.191c0.381,0,0.953-0.189,1.714-0.57V105.666z M-32.571,99.762H-28c0-0.951-0.19-1.714-0.571-2.096
		c-0.381-0.381-0.953-0.57-1.524-0.57c-0.762,0-1.333,0.189-1.714,0.762C-32.19,98.238-32.381,98.811-32.571,99.762z"/>
</g>
<g>
	<g>
		<path fill="none" stroke="#CBCBCB" stroke-linejoin="round" stroke-miterlimit="10" d="M15.646,69.012L15.646,69.012
			c0-8.119,7.308-14.818,16.239-14.818c8.932,0,16.238,6.699,16.238,14.818l0,0c0,8.119-7.309,14.818-16.238,14.818l0,0
			C22.954,83.627,15.646,77.131,15.646,69.012L15.646,69.012z"/>
		<g>
			<path fill="#CBCBCB" d="M15.646,69.012L15.646,69.012c0-8.119,7.308-14.818,16.239-14.818c8.932,0,16.238,6.699,16.238,14.818
				l0,0c0,8.119-7.309,14.818-16.238,14.818l0,0C22.954,83.627,15.646,77.131,15.646,69.012L15.646,69.012z"/>
			<path fill="none" stroke="#CBCBCB" stroke-width="1.5" stroke-linejoin="round" stroke-miterlimit="10" d="M22.547,60.486
				L22.547,60.486c-4.263-5.074-3.654-12.788,1.421-17.253c5.075-4.465,12.991-3.857,17.255,1.421
				c4.06,4.872,3.855,11.773-0.406,16.442"/>
			<path fill="#FFFFFF" d="M25.592,68.606L25.592,68.606c0-3.654,2.842-6.496,6.496-6.496c3.655,0,6.497,2.842,6.497,6.496l0,0
				c0,3.654-2.842,6.496-6.497,6.496l0,0C28.637,75.102,25.592,72.26,25.592,68.606L25.592,68.606z"/>
			<g enable-background="new    ">
				<path fill="#BFBFBF" d="M1.031,107.579V92.965h3.856c1.421,0,2.436,0.202,3.045,0.405s1.015,0.608,1.421,1.218
					c0.406,0.609,0.406,1.219,0.406,2.232c0,1.016-0.203,1.828-0.609,2.639c-0.406,0.812-1.015,1.422-2.03,1.828
					c-1.015,0.404-2.03,0.607-3.045,0.607H3.061v5.888h-2.03V107.579z M3.061,100.068h0.812c1.421,0,2.232-0.406,2.842-1.017
					c0.609-0.606,0.812-1.421,0.812-2.231c0-0.405,0-1.014-0.203-1.217c-0.203-0.406-0.406-0.609-0.812-0.812
					c-0.406-0.203-1.218-0.406-2.233-0.406H3.061V100.068z"/>
				<path fill="#BFBFBF" d="M12.195,107.579V96.82h2.03v2.029c0.406-0.812,0.812-1.219,1.421-1.623
					c0.609-0.406,1.218-0.608,1.827-0.608c0.203,0,0.406,0,0.609,0v1.827c-0.406-0.203-0.609-0.203-0.812-0.203
					c-0.609,0-1.218,0.203-1.624,0.607c-0.406,0.405-1.015,0.812-1.421,1.625v7.104L12.195,107.579L12.195,107.579z"/>
				<path fill="#BFBFBF" d="M20.517,94.791v-2.029h2.03v2.029H20.517z M20.517,107.579V96.82h2.03v10.759H20.517z"/>
				<path fill="#BFBFBF" d="M28.637,107.579l-4.06-10.759h2.03l3.045,8.322L32.9,96.82h1.827l-4.263,10.759H28.637z"/>
				<path fill="#BFBFBF" d="M42.643,106.158c-0.608,0.609-1.218,1.016-1.826,1.218c-0.608,0.203-1.219,0.406-1.625,0.406
					c-0.812,0-1.42-0.203-2.231-0.812c-0.608-0.406-1.017-1.221-1.017-2.234s0.406-2.029,1.423-2.639
					c1.016-0.607,2.437-1.016,4.465-1.016h0.405v-1.219c0-0.608,0-0.812-0.202-1.219c-0.203-0.203-0.406-0.404-0.607-0.607
					c-0.202,0-0.608,0-1.016,0c-1.017,0-2.231,0.404-3.451,1.015V97.43c1.422-0.609,2.64-0.812,3.856-0.812
					c0.608,0,1.218,0,1.826,0.202c0.609,0.203,1.017,0.609,1.219,1.016c0.406,0.406,0.406,1.219,0.406,2.029v4.871
					c0,0.609,0,0.812,0.201,1.016c0,0.203,0.203,0.406,0.406,0.406s0.406,0.203,0.607,0.203c0,0,0.203,0,0.406,0l0.203,1.015
					c-0.406,0.203-1.017,0.406-1.423,0.406c-0.403,0-0.606-0.203-1.015-0.406C43.049,107.174,42.846,106.768,42.643,106.158z
					 M42.236,105.143v-2.842h-0.609c-1.014,0-1.825,0.203-2.639,0.609c-0.607,0.406-1.016,1.016-1.016,1.624
					c0,0.405,0.203,0.812,0.608,1.218s0.812,0.406,1.219,0.406s0.812,0,1.218-0.203C41.425,105.752,41.83,105.346,42.236,105.143z"
					/>
				<path fill="#BFBFBF" d="M55.633,107.174c-1.217,0.405-2.232,0.608-3.246,0.608c-1.016,0-1.828-0.203-2.641-0.812
					c-0.812-0.609-1.42-1.221-1.826-2.031c-0.406-0.812-0.609-1.826-0.609-2.842c0-1.623,0.406-2.843,1.219-4.061
					c0.812-1.018,2.232-1.624,4.062-1.624c0.812,0,1.826,0.203,2.843,0.403v1.625c-1.017-0.404-2.029-0.404-2.64-0.404
					c-1.017,0-1.827,0.404-2.438,1.218c-0.606,0.812-0.812,1.827-0.812,2.843c0,1.219,0.406,2.232,1.017,2.842
					c0.608,0.812,1.422,1.219,2.436,1.219c0.812,0,1.828-0.203,2.641-0.609L55.633,107.174L55.633,107.174z"/>
				<path fill="#BFBFBF" d="M59.287,111.436l1.826-3.854L56.852,96.82h2.028l3.045,8.119l3.248-8.119H67l-5.887,14.615H59.287
					L59.287,111.436z"/>
			</g>
		</g>
	</g>
</g>
</svg>
