<?xml version="1.0" encoding="utf-8"?>
<!-- Generator: Adobe Illustrator 21.1.0, SVG Export Plug-In . SVG Version: 6.00 Build 0)  -->
<svg version="1.1" id="Layer_1" xmlns="http://www.w3.org/2000/svg" xmlns:xlink="http://www.w3.org/1999/xlink" x="0px" y="0px"
	 viewBox="0 0 33.5 37.3" style="enable-background:new 0 0 33.5 37.3;" xml:space="preserve">
<style type="text/css">
	.st0{fill:#CBCBCB;}
	.st1{fill:none;stroke:#CBCBCB;stroke-linejoin:round;stroke-miterlimit:10;}
	.st2{fill:none;stroke:#CBCBCB;stroke-width:1.5;stroke-linejoin:round;stroke-miterlimit:10;}
	.st3{fill:#F5F5F5;}
	.st4{enable-background:new    ;}
	.st5{fill:#BFBFBF;}
</style>
<path class="st0" d="M7.7,15.7L7.7,15.7c0-4,3.6-7.3,8-7.3s8,3.3,8,7.3l0,0c0,4-3.6,7.3-8,7.3l0,0C11.3,22.9,7.7,19.7,7.7,15.7
	L7.7,15.7z"/>
<path class="st1" d="M7.7,15.7L7.7,15.7c0-4,3.6-7.3,8-7.3s8,3.3,8,7.3l0,0c0,4-3.6,7.3-8,7.3l0,0C11.3,22.9,7.7,19.7,7.7,15.7
	L7.7,15.7z"/>
<path class="st2" d="M11.1,11.5L11.1,11.5C9,9,9.3,5.2,11.8,3s6.4-1.9,8.5,0.7c2,2.4,1.9,5.8-0.2,8.1"/>
<path class="st3" d="M12.6,15.5L12.6,15.5c0-1.8,1.4-3.2,3.2-3.2s3.2,1.4,3.2,3.2l0,0c0,1.8-1.4,3.2-3.2,3.2l0,0
	C14.1,18.7,12.6,17.3,12.6,15.5L12.6,15.5z"/>
<g class="st4">
	<path class="st5" d="M0.5,34.7v-7.2h1.9c0.7,0,1.2,0.1,1.5,0.2s0.5,0.3,0.7,0.6s0.2,0.6,0.2,1.1c0,0.5-0.1,0.9-0.3,1.3
		s-0.5,0.7-1,0.9c-0.5,0.2-1,0.3-1.5,0.3H1.5v2.9H0.5z M1.5,31h0.4c0.7,0,1.1-0.2,1.4-0.5c0.3-0.3,0.4-0.7,0.4-1.1
		c0-0.2,0-0.5-0.1-0.6c-0.1-0.2-0.2-0.3-0.4-0.4c-0.2-0.1-0.6-0.2-1.1-0.2H1.5V31z"/>
	<path class="st5" d="M6,34.7v-5.3h1v1c0.2-0.4,0.4-0.6,0.7-0.8c0.3-0.2,0.6-0.3,0.9-0.3c0.1,0,0.2,0,0.3,0v0.9
		c-0.2-0.1-0.3-0.1-0.4-0.1c-0.3,0-0.6,0.1-0.8,0.3S7.2,30.8,7,31.2v3.5H6z"/>
	<path class="st5" d="M10.1,28.4v-1h1v1H10.1z M10.1,34.7v-5.3h1v5.3H10.1z"/>
	<path class="st5" d="M14.1,34.7l-2-5.3h1l1.5,4.1l1.6-4.1h0.9l-2.1,5.3H14.1z"/>
	<path class="st5" d="M21,34c-0.3,0.3-0.6,0.5-0.9,0.6s-0.6,0.2-0.8,0.2c-0.4,0-0.7-0.1-1.1-0.4c-0.3-0.2-0.5-0.6-0.5-1.1
		c0-0.5,0.2-1,0.7-1.3c0.5-0.3,1.2-0.5,2.2-0.5h0.2v-0.6c0-0.3,0-0.4-0.1-0.6c-0.1-0.1-0.2-0.2-0.3-0.3C20.3,30,20.1,30,19.9,30
		c-0.5,0-1.1,0.2-1.7,0.5v-0.8c0.7-0.3,1.3-0.4,1.9-0.4c0.3,0,0.6,0,0.9,0.1c0.3,0.1,0.5,0.3,0.6,0.5c0.2,0.2,0.2,0.6,0.2,1v2.4
		c0,0.3,0,0.4,0.1,0.5c0,0.1,0.1,0.2,0.2,0.2c0.1,0,0.2,0.1,0.3,0.1c0,0,0.1,0,0.2,0l0.1,0.5c-0.2,0.1-0.5,0.2-0.7,0.2
		c-0.2,0-0.3-0.1-0.5-0.2C21.2,34.5,21.1,34.3,21,34z M20.8,33.5v-1.4l-0.3,0c-0.5,0-0.9,0.1-1.3,0.3c-0.3,0.2-0.5,0.5-0.5,0.8
		c0,0.2,0.1,0.4,0.3,0.6s0.4,0.2,0.6,0.2c0.2,0,0.4,0,0.6-0.1C20.4,33.8,20.6,33.6,20.8,33.5z"/>
	<path class="st5" d="M27.4,34.5c-0.6,0.2-1.1,0.3-1.6,0.3c-0.5,0-0.9-0.1-1.3-0.4s-0.7-0.6-0.9-1s-0.3-0.9-0.3-1.4
		c0-0.8,0.2-1.4,0.6-2c0.4-0.5,1.1-0.8,2-0.8c0.4,0,0.9,0.1,1.4,0.2v0.8c-0.5-0.2-1-0.2-1.3-0.2c-0.5,0-0.9,0.2-1.2,0.6
		c-0.3,0.4-0.4,0.9-0.4,1.4c0,0.6,0.2,1.1,0.5,1.4c0.3,0.4,0.7,0.6,1.2,0.6c0.4,0,0.9-0.1,1.3-0.3V34.5z"/>
	<path class="st5" d="M29.2,36.6l0.9-1.9L28,29.4h1l1.5,4l1.6-4h0.9l-2.9,7.2H29.2z"/>
</g>
</svg>
