<?xml version="1.0" encoding="utf-8"?>
<!-- Generator: Adobe Illustrator 21.1.0, SVG Export Plug-In . SVG Version: 6.00 Build 0)  -->
<svg version="1.1" id="Layer_1" xmlns="http://www.w3.org/2000/svg" xmlns:xlink="http://www.w3.org/1999/xlink" x="0px" y="0px"
	 viewBox="0 0 33.5 37.3" style="enable-background:new 0 0 33.5 37.3;" xml:space="preserve">
<style type="text/css">
	.st0{fill-rule:evenodd;clip-rule:evenodd;fill:#CBCBCB;}
	.st1{fill:none;stroke:#CBCBCB;stroke-width:1;stroke-linejoin:round;stroke-miterlimit:10;}
	.st2{fill:none;stroke:#CBCBCB;stroke-width:1.5;stroke-linejoin:round;stroke-miterlimit:10;}
	.st3{fill-rule:evenodd;clip-rule:evenodd;fill:#F5F5F5;}
	.st4{fill:#BFBFBF;}
	.st5{font-family:'LucidaSans';}
	.st6{font-size:10px;}
</style>
<path class="st0" d="M7.7,15.7L7.7,15.7c0-4,3.6-7.3,8-7.3c4.4,0,8,3.3,8,7.3l0,0c0,4-3.6,7.3-8,7.3l0,0
	C11.3,22.9,7.7,19.7,7.7,15.7L7.7,15.7z"/>
<path class="st1" d="M7.7,15.7L7.7,15.7c0-4,3.6-7.3,8-7.3s8,3.3,8,7.3l0,0c0,4-3.6,7.3-8,7.3l0,0C11.3,22.9,7.7,19.7,7.7,15.7
	L7.7,15.7z"/>
<path class="st2" d="M11.1,11.5L11.1,11.5C9,9,9.3,5.2,11.8,3c2.5-2.2,6.4-1.9,8.5,0.7c2,2.4,1.9,5.8-0.2,8.1"/>
<path class="st3" d="M12.6,15.5L12.6,15.5c0-1.8,1.4-3.2,3.2-3.2c1.8,0,3.2,1.4,3.2,3.2l0,0c0,1.8-1.4,3.2-3.2,3.2l0,0
	C14.1,18.7,12.6,17.3,12.6,15.5L12.6,15.5z"/>
<text transform="matrix(1 0 0 1 -0.4423 34.6651)" class="st4 st5 st6">Privacy </text>
</svg>
