<?xml version="1.0" encoding="utf-8"?>
<!-- Generator: Adobe Illustrator 21.1.0, SVG Export Plug-In . SVG Version: 6.00 Build 0)  -->
<svg version="1.1" id="Layer_1" xmlns="http://www.w3.org/2000/svg" xmlns:xlink="http://www.w3.org/1999/xlink" x="0px" y="0px"
	 viewBox="0 0 33.2 36.4" style="enable-background:new 0 0 33.2 36.4;" xml:space="preserve">
<style type="text/css">
	.st0{display:none;fill:#58FF00;}
	.st1{fill:#FFFFFF;}
	.st2{fill:none;stroke:#FFFFFF;stroke-linejoin:round;stroke-miterlimit:10;}
	.st3{fill:none;stroke:#FFFFFF;stroke-width:1.5;stroke-linejoin:round;stroke-miterlimit:10;}
	.st4{fill:#3DDE00;}
	.st5{font-family:'LucidaSans';}
	.st6{font-size:10px;}
</style>
<rect x="-1.6" y="-7.9" class="st0" width="38.2" height="46.5"/>
<path class="st1" d="M7.4,15.2L7.4,15.2c0-4,3.6-7.3,8-7.3s8,3.3,8,7.3l0,0c0,4-3.6,7.3-8,7.3l0,0C11,22.4,7.4,19.2,7.4,15.2
	L7.4,15.2z"/>
<path class="st2" d="M7.4,15.2L7.4,15.2c0-4,3.6-7.3,8-7.3s8,3.3,8,7.3l0,0c0,4-3.6,7.3-8,7.3l0,0C11,22.4,7.4,19.2,7.4,15.2
	L7.4,15.2z"/>
<path class="st3" d="M10.8,11L10.8,11c-2.2-2.5-1.9-6.4,0.7-8.5C14,0.3,17.9,0.6,20,3.2c2,2.4,1.9,5.8-0.2,8.1"/>
<path class="st4" d="M12.3,15L12.3,15c0-1.8,1.4-3.2,3.2-3.2c1.8,0,3.2,1.4,3.2,3.2l0,0c0,1.8-1.4,3.2-3.2,3.2l0,0
	C13.8,18.2,12.3,16.7,12.3,15L12.3,15z"/>
<text transform="matrix(1 0 0 1 -0.7687 34.145)" class="st1 st5 st6">Privacy </text>
</svg>
