<?xml version="1.0" encoding="utf-8"?>
<!-- Generator: Adobe Illustrator 16.0.0, SVG Export Plug-In . SVG Version: 6.00 Build 0)  -->
<!DOCTYPE svg PUBLIC "-//W3C//DTD SVG 1.1//EN" "http://www.w3.org/Graphics/SVG/1.1/DTD/svg11.dtd">
<svg version="1.1" id="Layer_1" xmlns="http://www.w3.org/2000/svg" xmlns:xlink="http://www.w3.org/1999/xlink" x="0px" y="0px"
	 width="68px" height="150px" viewBox="0 0 68 150" enable-background="new 0 0 68 150" xml:space="preserve">
<path fill="#CBCBCB" d="M15.63,69.012L15.63,69.012c0-8.119,7.308-14.818,16.239-14.818s16.239,6.699,16.239,14.818l0,0
	c0,8.119-7.308,14.818-16.239,14.818l0,0C22.938,83.627,15.63,77.131,15.63,69.012L15.63,69.012z"/>
<path fill="none" stroke="#CBCBCB" stroke-linejoin="round" stroke-miterlimit="10" d="M15.63,69.012L15.63,69.012
	c0-8.119,7.308-14.818,16.239-14.818s16.239,6.699,16.239,14.818l0,0c0,8.119-7.308,14.818-16.239,14.818l0,0
	C22.938,83.627,15.63,77.131,15.63,69.012L15.63,69.012z"/>
<path fill="none" stroke="#CBCBCB" stroke-width="1.5" stroke-linejoin="round" stroke-miterlimit="10" d="M22.531,60.486
	L22.531,60.486c-4.263-5.074-3.654-12.788,1.421-17.253s12.991-3.857,17.254,1.421c4.06,4.872,3.856,11.773-0.406,16.442"/>
<path fill="#FFFFFF" d="M25.576,68.606L25.576,68.606c0-3.654,2.842-6.496,6.496-6.496s6.496,2.842,6.496,6.496l0,0
	c0,3.654-2.842,6.496-6.496,6.496l0,0C28.621,75.102,25.576,72.26,25.576,68.606L25.576,68.606z"/>
<g enable-background="new    ">
	<path fill="#BFBFBF" d="M1.015,107.579V92.965h3.856c1.421,0,2.436,0.202,3.045,0.405s1.015,0.608,1.421,1.218
		c0.406,0.609,0.406,1.219,0.406,2.232c0,1.016-0.203,1.828-0.609,2.639c-0.406,0.812-1.015,1.422-2.03,1.828
		c-1.015,0.405-2.03,0.608-3.045,0.608H3.045v5.887h-2.03V107.579z M3.045,100.068h0.812c1.421,0,2.232-0.406,2.842-1.015
		c0.609-0.608,0.812-1.421,0.812-2.233c0-0.405,0-1.014-0.203-1.217c-0.203-0.406-0.406-0.609-0.812-0.812
		c-0.406-0.203-1.218-0.406-2.233-0.406H3.045V100.068z"/>
	<path fill="#BFBFBF" d="M12.179,107.579V96.82h2.03v2.03c0.406-0.812,0.812-1.218,1.421-1.624s1.218-0.608,1.827-0.608
		c0.203,0,0.406,0,0.609,0v1.827c-0.406-0.203-0.609-0.203-0.812-0.203c-0.609,0-1.218,0.203-1.624,0.608
		c-0.406,0.406-1.015,0.812-1.421,1.624v7.104H12.179z"/>
	<path fill="#BFBFBF" d="M20.501,94.791v-2.029h2.03v2.029H20.501z M20.501,107.579V96.82h2.03v10.759H20.501z"/>
	<path fill="#BFBFBF" d="M28.621,107.579l-4.06-10.759h2.03l3.045,8.322l3.248-8.322h1.827l-4.263,10.759H28.621z"/>
	<path fill="#BFBFBF" d="M42.627,106.158c-0.609,0.609-1.218,1.016-1.827,1.218c-0.608,0.203-1.218,0.406-1.624,0.406
		c-0.812,0-1.42-0.203-2.232-0.812c-0.609-0.406-1.016-1.219-1.016-2.233s0.406-2.03,1.422-2.639
		c1.015-0.608,2.436-1.015,4.465-1.015h0.406v-1.219c0-0.608,0-0.812-0.203-1.217c-0.203-0.203-0.406-0.406-0.608-0.609
		c-0.203,0-0.609,0-1.015,0c-1.016,0-2.233,0.406-3.451,1.015V97.43c1.421-0.609,2.639-0.812,3.856-0.812
		c0.609,0,1.218,0,1.827,0.202c0.609,0.203,1.015,0.609,1.218,1.016c0.406,0.406,0.406,1.218,0.406,2.029v4.872
		c0,0.608,0,0.812,0.202,1.015c0,0.203,0.203,0.406,0.406,0.406s0.406,0.203,0.609,0.203c0,0,0.203,0,0.406,0l0.203,1.015
		c-0.406,0.203-1.016,0.406-1.422,0.406c-0.405,0-0.608-0.203-1.015-0.406C43.033,107.174,42.83,106.768,42.627,106.158z
		 M42.221,105.143v-2.842h-0.609c-1.014,0-1.826,0.203-2.639,0.609c-0.608,0.406-1.015,1.016-1.015,1.624
		c0,0.406,0.203,0.812,0.609,1.218c0.405,0.406,0.812,0.406,1.218,0.406s0.812,0,1.218-0.203
		C41.409,105.752,41.814,105.346,42.221,105.143z"/>
	<path fill="#BFBFBF" d="M55.617,107.174c-1.217,0.405-2.232,0.608-3.247,0.608s-1.827-0.203-2.639-0.812
		c-0.812-0.609-1.421-1.219-1.827-2.03s-0.609-1.827-0.609-2.842c0-1.624,0.406-2.842,1.219-4.06
		c0.812-1.016,2.232-1.624,4.06-1.624c0.812,0,1.827,0.203,2.842,0.405v1.625c-1.015-0.406-2.03-0.406-2.639-0.406
		c-1.015,0-1.827,0.406-2.437,1.218c-0.608,0.812-0.812,1.827-0.812,2.842c0,1.218,0.406,2.233,1.015,2.842
		c0.609,0.812,1.422,1.218,2.436,1.218c0.812,0,1.828-0.203,2.64-0.609L55.617,107.174L55.617,107.174z"/>
	<path fill="#BFBFBF" d="M59.271,111.436l1.827-3.856L56.836,96.82h2.029l3.045,8.12l3.248-8.12h1.826l-5.886,14.615H59.271z"/>
</g>
</svg>
