<?xml version="1.0" encoding="utf-8"?>
<!-- Generator: Adobe Illustrator 21.1.0, SVG Export Plug-In . SVG Version: 6.00 Build 0)  -->
<svg version="1.1" id="Layer_1" xmlns="http://www.w3.org/2000/svg" xmlns:xlink="http://www.w3.org/1999/xlink" x="0px" y="0px"
	 viewBox="0 0 33.2 36.4" style="enable-background:new 0 0 33.2 36.4;" xml:space="preserve">
<style type="text/css">
	.st0{display:none;fill:#58FF00;}
	.st1{fill:#FFFFFF;}
	.st2{fill:none;stroke:#FFFFFF;stroke-linejoin:round;stroke-miterlimit:10;}
	.st3{fill:none;stroke:#FFFFFF;stroke-width:1.5;stroke-linejoin:round;stroke-miterlimit:10;}
	.st4{fill:#3DDE00;}
	.st5{enable-background:new    ;}
</style>
<rect x="-1.6" y="-7.9" class="st0" width="38.2" height="46.5"/>
<path class="st1" d="M7.4,15.2L7.4,15.2c0-4,3.6-7.3,8-7.3s8,3.3,8,7.3l0,0c0,4-3.6,7.3-8,7.3l0,0C11,22.4,7.4,19.2,7.4,15.2
	L7.4,15.2z"/>
<path class="st2" d="M7.4,15.2L7.4,15.2c0-4,3.6-7.3,8-7.3s8,3.3,8,7.3l0,0c0,4-3.6,7.3-8,7.3l0,0C11,22.4,7.4,19.2,7.4,15.2
	L7.4,15.2z"/>
<path class="st3" d="M10.8,11L10.8,11c-2.2-2.5-1.9-6.4,0.7-8.5C14,0.3,17.9,0.6,20,3.2c2,2.4,1.9,5.8-0.2,8.1"/>
<path class="st4" d="M12.3,15L12.3,15c0-1.8,1.4-3.2,3.2-3.2s3.2,1.4,3.2,3.2l0,0c0,1.8-1.4,3.2-3.2,3.2l0,0
	C13.8,18.2,12.3,16.7,12.3,15L12.3,15z"/>
<g class="st5">
	<path class="st1" d="M0.2,34.1v-7.2h1.9c0.7,0,1.2,0.1,1.5,0.2s0.5,0.3,0.7,0.6s0.2,0.6,0.2,1.1c0,0.5-0.1,0.9-0.3,1.3
		s-0.5,0.7-1,0.9c-0.5,0.2-1,0.3-1.5,0.3H1.2v2.9H0.2z M1.2,30.5h0.4c0.7,0,1.1-0.2,1.4-0.5c0.3-0.3,0.4-0.7,0.4-1.1
		c0-0.2,0-0.5-0.1-0.6c-0.1-0.2-0.2-0.3-0.4-0.4s-0.6-0.2-1.1-0.2H1.2V30.5z"/>
	<path class="st1" d="M5.7,34.1v-5.3h1v1c0.2-0.4,0.4-0.6,0.7-0.8c0.3-0.2,0.6-0.3,0.9-0.3c0.1,0,0.2,0,0.3,0v0.9
		c-0.2-0.1-0.3-0.1-0.4-0.1c-0.3,0-0.6,0.1-0.8,0.3c-0.3,0.2-0.5,0.5-0.7,0.8v3.5H5.7z"/>
	<path class="st1" d="M9.8,27.9v-1h1v1H9.8z M9.8,34.1v-5.3h1v5.3H9.8z"/>
	<path class="st1" d="M13.8,34.1l-2-5.3h1l1.5,4.1l1.6-4.1h0.9l-2.1,5.3H13.8z"/>
	<path class="st1" d="M20.7,33.5c-0.3,0.3-0.6,0.5-0.9,0.6c-0.3,0.1-0.6,0.2-0.8,0.2c-0.4,0-0.7-0.1-1.1-0.4
		c-0.3-0.2-0.5-0.6-0.5-1.1c0-0.5,0.2-1,0.7-1.3c0.5-0.3,1.2-0.5,2.2-0.5h0.2v-0.6c0-0.3,0-0.4-0.1-0.6s-0.2-0.2-0.3-0.3
		c-0.1-0.1-0.3-0.1-0.5-0.1c-0.5,0-1.1,0.2-1.7,0.5v-0.8c0.7-0.3,1.3-0.4,1.9-0.4c0.3,0,0.6,0,0.9,0.1c0.3,0.1,0.5,0.3,0.6,0.5
		c0.2,0.2,0.2,0.6,0.2,1v2.4c0,0.3,0,0.4,0.1,0.5c0,0.1,0.1,0.2,0.2,0.2c0.1,0,0.2,0.1,0.3,0.1c0,0,0.1,0,0.2,0l0.1,0.5
		c-0.2,0.1-0.5,0.2-0.7,0.2c-0.2,0-0.3-0.1-0.5-0.2C20.8,34,20.7,33.8,20.7,33.5z M20.5,32.9v-1.4l-0.3,0c-0.5,0-0.9,0.1-1.3,0.3
		c-0.3,0.2-0.5,0.5-0.5,0.8c0,0.2,0.1,0.4,0.3,0.6c0.2,0.2,0.4,0.2,0.6,0.2c0.2,0,0.4,0,0.6-0.1C20.1,33.3,20.3,33.1,20.5,32.9z"/>
	<path class="st1" d="M27,34c-0.6,0.2-1.1,0.3-1.6,0.3c-0.5,0-0.9-0.1-1.3-0.4s-0.7-0.6-0.9-1C23.1,32.5,23,32,23,31.5
		c0-0.8,0.2-1.4,0.6-2c0.4-0.5,1.1-0.8,2-0.8c0.4,0,0.9,0.1,1.4,0.2v0.8c-0.5-0.2-1-0.2-1.3-0.2c-0.5,0-0.9,0.2-1.2,0.6
		s-0.4,0.9-0.4,1.4c0,0.6,0.2,1.1,0.5,1.4c0.3,0.4,0.7,0.6,1.2,0.6c0.4,0,0.9-0.1,1.3-0.3V34z"/>
	<path class="st1" d="M28.8,36.1l0.9-1.9l-2.1-5.3h1l1.5,4l1.6-4h0.9l-2.9,7.2H28.8z"/>
</g>
</svg>
