<?xml version="1.0" encoding="utf-8"?>
<!-- Generator: Adobe Illustrator 21.1.0, SVG Export Plug-In . SVG Version: 6.00 Build 0)  -->
<svg version="1.1" id="Layer_1" xmlns="http://www.w3.org/2000/svg" xmlns:xlink="http://www.w3.org/1999/xlink" x="0px" y="0px"
	 viewBox="0 0 29.2 35" style="enable-background:new 0 0 29.2 35;" xml:space="preserve">
<style type="text/css">
	.st0{fill:#FFFFFF;}
	.st1{font-family:'AndaleMono';}
	.st2{font-size:65px;}
	.st3{enable-background:new    ;}
</style>
<text transform="matrix(-1 0 0 -1 34.7588 -30.5898)" class="st0 st1 st2">”</text>
<g class="st3">
	<path class="st0" d="M7.3,34.2c-1.1-0.4-2.1-0.8-2.9-1.3c-0.3,0-0.5,0-0.7,0c-0.6,0-1.2-0.2-1.7-0.5c-0.5-0.3-0.9-0.8-1.2-1.4
		s-0.4-1.2-0.4-2s0.1-1.4,0.4-2c0.3-0.6,0.7-1,1.2-1.4s1.1-0.5,1.8-0.5c0.7,0,1.3,0.2,1.8,0.5c0.5,0.3,0.9,0.8,1.2,1.4
		c0.3,0.6,0.4,1.2,0.4,2c0,0.7-0.1,1.4-0.4,2c-0.3,0.6-0.8,1.1-1.4,1.4C6.2,33,7.1,33.2,8,33.4L7.3,34.2z M3.9,32.2
		c0.7,0,1.3-0.3,1.7-0.8c0.4-0.5,0.6-1.3,0.6-2.2S6,27.5,5.6,26.9c-0.4-0.5-1-0.8-1.7-0.8s-1.3,0.3-1.7,0.8
		c-0.4,0.5-0.6,1.3-0.6,2.2c0,0.9,0.2,1.7,0.6,2.2S3.2,32.2,3.9,32.2z"/>
	<path class="st0" d="M12,32.8v-1c-0.2,0.4-0.5,0.6-0.9,0.8c-0.3,0.2-0.7,0.3-1,0.3c-0.4,0-0.8-0.1-1.1-0.4
		c-0.3-0.3-0.4-0.7-0.4-1.2v-3.8h1v3.5c0,0.4,0,0.6,0.1,0.7s0.2,0.2,0.3,0.3s0.2,0.1,0.4,0.1c0.2,0,0.5-0.1,0.8-0.2s0.6-0.5,0.9-0.9
		v-3.4h1v5.3H12z"/>
	<path class="st0" d="M17,32.9c-0.5,0-0.9-0.1-1.3-0.3c-0.4-0.2-0.7-0.5-0.9-1c-0.2-0.4-0.3-0.9-0.3-1.5c0-0.5,0.1-1,0.3-1.4
		c0.2-0.4,0.5-0.8,0.9-1c0.4-0.2,0.8-0.3,1.4-0.3c0.5,0,0.9,0.1,1.3,0.3c0.4,0.2,0.7,0.5,0.9,1c0.2,0.4,0.3,0.9,0.3,1.5
		c0,0.5-0.1,1-0.3,1.4c-0.2,0.4-0.5,0.8-0.9,1C18,32.8,17.6,32.9,17,32.9z M17,32.2c0.5,0,0.9-0.2,1.1-0.5c0.3-0.4,0.4-0.9,0.4-1.5
		c0-0.7-0.1-1.2-0.4-1.5S17.5,28,17,28c-0.5,0-0.8,0.2-1.1,0.5c-0.3,0.4-0.4,0.9-0.4,1.5c0,0.7,0.1,1.2,0.4,1.5
		C16.2,32,16.6,32.2,17,32.2z"/>
	<path class="st0" d="M23.4,32.8c-0.3,0.1-0.6,0.1-0.8,0.1c-0.5,0-0.9-0.1-1.1-0.4c-0.3-0.3-0.4-0.7-0.4-1.2v-3.1h-0.7v-0.7h0.7v-1
		l1-0.1v1.1h1.4v0.7h-1.4v2.9c0,0.4,0.1,0.6,0.2,0.8c0.1,0.2,0.4,0.2,0.7,0.2c0.1,0,0.3,0,0.5-0.1V32.8z"/>
	<path class="st0" d="M28.8,32.6c-0.7,0.2-1.2,0.3-1.7,0.3c-0.8,0-1.5-0.3-2-0.8c-0.5-0.6-0.7-1.2-0.7-2c0-0.5,0.1-1,0.3-1.4
		c0.2-0.4,0.5-0.8,0.8-1s0.7-0.3,1.2-0.3c0.6,0,1.1,0.2,1.5,0.7s0.6,1.1,0.6,2l0,0.3h-3.4c0.1,0.5,0.2,0.8,0.3,1.1s0.4,0.5,0.6,0.6
		c0.3,0.1,0.6,0.2,1,0.2c0.2,0,0.4,0,0.6-0.1c0.2,0,0.5-0.1,0.9-0.3V32.6z M25.4,29.5h2.4c0-0.5-0.1-0.9-0.3-1.1
		C27.3,28.2,27,28,26.7,28c-0.4,0-0.7,0.1-0.9,0.4C25.6,28.7,25.5,29,25.4,29.5z"/>
</g>
</svg>
