<?xml version="1.0" encoding="utf-8"?>
<!-- Generator: Adobe Illustrator 21.1.0, SVG Export Plug-In . SVG Version: 6.00 Build 0)  -->
<svg version="1.1" id="Layer_1" xmlns="http://www.w3.org/2000/svg" xmlns:xlink="http://www.w3.org/1999/xlink" x="0px" y="0px"
	 viewBox="0 0 10.2 8.8" style="enable-background:new 0 0 10.2 8.8;" xml:space="preserve">
<style type="text/css">
	.st0{fill:#FFFFFF;}
	.st1{fill:none;stroke:#FFFFFF;stroke-width:0.624;stroke-miterlimit:10;}
</style>
<g>
	<path class="st0" d="M4.3,2.3c-1,0.5-1.6,1.1-1.6,1.8c0.4,0.1,0.8,0.2,1.1,0.5C4.2,5,4.3,5.3,4.3,5.7c0,0.4-0.1,0.8-0.4,1.1
		S3.3,7.3,2.8,7.3C2.4,7.3,2,7.1,1.6,6.7C1.3,6.3,1.1,5.8,1.1,5.3c0-1.7,0.9-2.9,2.8-3.9L4.3,2.3z M9,2.3C8,2.8,7.4,3.4,7.4,4.1
		c0.4,0.1,0.8,0.2,1.1,0.5C8.8,5,9,5.3,9,5.7c0,0.4-0.1,0.8-0.4,1.1S7.9,7.3,7.5,7.3C7,7.3,6.6,7.1,6.3,6.7C5.9,6.3,5.7,5.8,5.7,5.3
		c0-1.7,0.9-2.9,2.8-3.9L9,2.3z"/>
</g>
<g>
	<path class="st1" d="M4.3,2.3c-1,0.5-1.6,1.1-1.6,1.8c0.4,0.1,0.8,0.2,1.1,0.5C4.2,5,4.3,5.3,4.3,5.7c0,0.4-0.1,0.8-0.4,1.1
		S3.3,7.3,2.8,7.3C2.4,7.3,2,7.1,1.6,6.7C1.3,6.3,1.1,5.8,1.1,5.3c0-1.7,0.9-2.9,2.8-3.9L4.3,2.3z M9,2.3C8,2.8,7.4,3.4,7.4,4.1
		c0.4,0.1,0.8,0.2,1.1,0.5C8.8,5,9,5.3,9,5.7c0,0.4-0.1,0.8-0.4,1.1S7.9,7.3,7.5,7.3C7,7.3,6.6,7.1,6.3,6.7C5.9,6.3,5.7,5.8,5.7,5.3
		c0-1.7,0.9-2.9,2.8-3.9L9,2.3z"/>
</g>
</svg>
