<?xml version="1.0" encoding="utf-8"?>
<!-- Generator: Adobe Illustrator 21.1.0, SVG Export Plug-In . SVG Version: 6.00 Build 0)  -->
<svg version="1.1" id="Layer_1" xmlns="http://www.w3.org/2000/svg" xmlns:xlink="http://www.w3.org/1999/xlink" x="0px" y="0px"
	 viewBox="0 0 10.1 13.1" style="enable-background:new 0 0 10.1 13.1;" xml:space="preserve">
<style type="text/css">
	.st0{fill-rule:evenodd;clip-rule:evenodd;fill:#FF2600;}
	.st1{fill:none;stroke:#FF2600;stroke-width:1;stroke-linejoin:round;stroke-miterlimit:10;}
	.st2{fill-rule:evenodd;clip-rule:evenodd;fill:#FFFFFF;}
</style>
<path class="st0" d="M0.7,8.3L0.7,8.3c0-2.2,1.9-3.9,4.3-3.9s4.3,1.8,4.3,3.9l0,0c0,2.2-1.9,3.9-4.3,3.9l0,0
	C2.7,12.2,0.7,10.5,0.7,8.3L0.7,8.3z"/>
<path class="st1" d="M0.7,8.3L0.7,8.3c0-2.2,1.9-3.9,4.3-3.9s4.3,1.8,4.3,3.9l0,0c0,2.2-1.9,3.9-4.3,3.9l0,0
	C2.7,12.2,0.7,10.5,0.7,8.3L0.7,8.3z"/>
<path class="st1" d="M2.6,6.1L2.6,6.1c-1.2-1.4-1-3.4,0.4-4.6c1.4-1.2,3.4-1,4.6,0.4c1.1,1.3,1,3.1-0.1,4.4"/>
<path class="st2" d="M3.4,8.2L3.4,8.2c0-0.9,0.8-1.7,1.7-1.7c0.9,0,1.7,0.8,1.7,1.7l0,0c0,0.9-0.8,1.7-1.7,1.7l0,0
	C4.2,9.9,3.4,9.2,3.4,8.2L3.4,8.2z"/>
</svg>
