<?xml version="1.0" encoding="utf-8"?>
<!-- Generator: Adobe Illustrator 21.1.0, SVG Export Plug-In . SVG Version: 6.00 Build 0)  -->
<svg version="1.1" id="Layer_1" xmlns="http://www.w3.org/2000/svg" xmlns:xlink="http://www.w3.org/1999/xlink" x="0px" y="0px"
	 viewBox="0 0 24.3 23.4" style="enable-background:new 0 0 24.3 23.4;" xml:space="preserve">
<style type="text/css">
	.st0{display:none;fill:#1E1E1E;}
	.st1{opacity:0.25;}
	.st2{fill:none;stroke:#FFFFFF;stroke-width:2;stroke-linejoin:round;stroke-miterlimit:10;}
</style>
<rect x="-1.7" y="-1.4" class="st0" width="27.7" height="25.8"/>
<g>
	<g class="st1">
		<path class="st2" d="M10.9,15.8L4,23.1 M15.7,4.1c-3.8,0-6.9,3.1-6.9,6.9c0,1.9,0.8,3.6,2,4.9c1.2,1.2,3,2,4.9,2s3.6-0.8,4.9-2
			c1.2-1.2,2-3,2-4.9C22.6,7.1,19.5,4.1,15.7,4.1z"/>
	</g>
	<g>
		<path class="st2" d="M9.4,14.3l-6.9,7.2 M14.2,2.6c-3.8,0-6.9,3.1-6.9,6.9c0,1.9,0.8,3.6,2,4.9c1.2,1.2,3,2,4.9,2s3.6-0.8,4.9-2
			c1.2-1.2,2-3,2-4.9C21.1,5.6,18,2.6,14.2,2.6z"/>
	</g>
</g>
</svg>
