<?xml version="1.0" encoding="utf-8"?>
<!-- Generator: Adobe Illustrator 21.1.0, SVG Export Plug-In . SVG Version: 6.00 Build 0)  -->
<svg version="1.1" id="Layer_1" xmlns="http://www.w3.org/2000/svg" xmlns:xlink="http://www.w3.org/1999/xlink" x="0px" y="0px"
	 viewBox="0 0 26.6 33.3" style="enable-background:new 0 0 26.6 33.3;" xml:space="preserve">
<style type="text/css">
	.st0{display:none;fill:#42E200;}
	.st1{fill:#FFFFFF;}
	.st2{font-family:'LucidaSans';}
	.st3{font-size:10px;}
	.st4{fill:#FFFFFF;stroke:#FFFFFF;stroke-width:1.25;stroke-linejoin:round;stroke-miterlimit:10;}
</style>
<rect x="-3.9" y="-5.4" class="st0" width="37" height="44.8"/>
<text transform="matrix(1 0 0 1 0 32.755)" class="st1 st2 st3">Share </text>
<path class="st1" d="M3.8,10.7L3.8,10.7c0-2,1.6-3.6,3.6-3.6S11,8.7,11,10.7l0,0c0,2-1.6,3.6-3.6,3.6l0,0
	C5.4,14.3,3.8,12.7,3.8,10.7L3.8,10.7z"/>
<path class="st1" d="M15.9,17.7L15.9,17.7c0-2,1.6-3.6,3.6-3.6s3.6,1.6,3.6,3.6l0,0c0,2-1.6,3.6-3.6,3.6l0,0
	C17.5,21.3,15.9,19.6,15.9,17.7L15.9,17.7z"/>
<path class="st1" d="M15.9,3.6L15.9,3.6c0-2,1.6-3.6,3.6-3.6s3.6,1.6,3.6,3.6l0,0c0,2-1.6,3.6-3.6,3.6l0,0
	C17.5,7.2,15.9,5.6,15.9,3.6L15.9,3.6z"/>
<line class="st4" x1="5.4" y1="11.7" x2="21" y2="2.2"/>
<line class="st4" x1="5.4" y1="9.5" x2="21" y2="18.9"/>
</svg>
