<?xml version="1.0" encoding="utf-8"?>
<!-- Generator: Adobe Illustrator 21.1.0, SVG Export Plug-In . SVG Version: 6.00 Build 0)  -->
<svg version="1.1" id="Layer_1" xmlns="http://www.w3.org/2000/svg" xmlns:xlink="http://www.w3.org/1999/xlink" x="0px" y="0px"
	 viewBox="0 0 26.6 33.3" style="enable-background:new 0 0 26.6 33.3;" xml:space="preserve">
<style type="text/css">
	.st0{display:none;fill:#42E200;}
	.st1{enable-background:new    ;}
	.st2{fill:#FFFFFF;}
</style>
<rect x="-3.9" y="-5.4" class="st0" width="37" height="44.8"/>
<g class="st1">
	<path class="st2" d="M0.5,32.1v-1c0.6,0.3,1,0.4,1.3,0.5c0.3,0.1,0.5,0.1,0.7,0.1c0.4,0,0.7-0.1,1-0.3c0.2-0.2,0.4-0.5,0.4-0.8
		c0-0.2-0.1-0.5-0.2-0.7c-0.1-0.2-0.4-0.4-1-0.7l-0.5-0.3c-0.7-0.4-1.1-0.7-1.3-1s-0.3-0.7-0.3-1s0.1-0.7,0.3-1s0.4-0.5,0.7-0.7
		s0.7-0.3,1.2-0.3c0.6,0,1.1,0.1,1.8,0.3v0.9c-0.5-0.2-0.9-0.3-1.1-0.4s-0.4-0.1-0.6-0.1c-0.4,0-0.7,0.1-0.9,0.3s-0.3,0.4-0.3,0.7
		c0,0.2,0,0.3,0.1,0.5c0,0.1,0.1,0.3,0.2,0.4c0.2,0.1,0.4,0.3,0.7,0.4l0.5,0.3c0.7,0.4,1.1,0.7,1.3,1s0.3,0.7,0.3,1.1
		c0,0.6-0.2,1.1-0.6,1.5c-0.4,0.4-1.1,0.6-1.9,0.6c-0.3,0-0.5,0-0.8-0.1C1.4,32.4,1,32.3,0.5,32.1z"/>
	<path class="st2" d="M6.3,32.3v-7.8h1v3.4c0.2-0.4,0.5-0.6,0.9-0.8c0.3-0.2,0.7-0.3,1-0.3c0.4,0,0.8,0.1,1.1,0.4s0.4,0.7,0.4,1.2
		v3.8h-1v-3.5c0-0.4,0-0.6-0.1-0.7s-0.2-0.2-0.3-0.3s-0.2,0-0.3,0c-0.2,0-0.5,0.1-0.8,0.2s-0.6,0.5-0.9,0.9v3.4L6.3,32.3L6.3,32.3z"
		/>
	<path class="st2" d="M15.3,31.6c-0.3,0.3-0.6,0.5-0.9,0.6c-0.3,0.1-0.6,0.2-0.8,0.2c-0.4,0-0.7-0.1-1.1-0.4S12,31.4,12,30.9
		s0.2-1,0.7-1.3s1.2-0.5,2.2-0.5h0.2v-0.6c0-0.3,0-0.4-0.1-0.6c-0.1-0.1-0.2-0.2-0.3-0.3s-0.3-0.1-0.5-0.1c-0.5,0-1.1,0.2-1.7,0.5
		v-0.8c0.7-0.3,1.3-0.4,1.9-0.4c0.3,0,0.6,0,0.9,0.1c0.3,0.1,0.5,0.3,0.6,0.5c0.2,0.2,0.2,0.6,0.2,1v2.4c0,0.3,0,0.4,0.1,0.5
		s0.1,0.2,0.2,0.2s0.2,0.1,0.3,0.1c0,0,0.1,0,0.2,0l0.1,0.5c-0.2,0.1-0.5,0.2-0.7,0.2s-0.3-0.1-0.5-0.2S15.4,31.9,15.3,31.6z
		 M15.2,31.1v-1.4h-0.3c-0.5,0-0.9,0.1-1.3,0.3s-0.5,0.5-0.5,0.8c0,0.2,0.1,0.4,0.3,0.6c0.2,0.2,0.4,0.2,0.6,0.2
		c0.2,0,0.4,0,0.6-0.1C14.8,31.4,15,31.2,15.2,31.1z"/>
	<path class="st2" d="M18.1,32.3V27h1v1c0.2-0.4,0.4-0.6,0.7-0.8c0.3-0.2,0.6-0.3,1-0.3c0.1,0,0.2,0,0.3,0v0.9
		c-0.2-0.1-0.3-0.1-0.4-0.1c-0.3,0-0.6,0.1-0.8,0.3c-0.3,0.2-0.5,0.5-0.7,0.8v3.5H18.1z"/>
	<path class="st2" d="M26.1,32.1c-0.7,0.2-1.2,0.3-1.7,0.3c-0.8,0-1.5-0.3-2-0.8c-0.5-0.6-0.7-1.2-0.7-2c0-0.5,0.1-1,0.3-1.4
		c0.2-0.4,0.5-0.8,0.8-1s0.7-0.3,1.2-0.3c0.6,0,1.1,0.2,1.5,0.7c0.4,0.4,0.6,1.1,0.6,2v0.3h-3.4c0.1,0.5,0.2,0.8,0.3,1.1
		c0.2,0.3,0.4,0.5,0.6,0.6c0.3,0.1,0.6,0.2,1,0.2c0.2,0,0.4,0,0.6-0.1c0.2,0,0.5-0.1,0.9-0.3C26.1,31.4,26.1,32.1,26.1,32.1z
		 M22.8,29h2.4c0-0.5-0.1-0.9-0.3-1.1s-0.5-0.3-0.8-0.3c-0.4,0-0.7,0.1-0.9,0.4C22.9,28.2,22.8,28.5,22.8,29z"/>
</g>
<g>
	<path class="st2" d="M2.6,17.7c0.2-0.9,0.3-1.9,0.5-2.7C4.7,9.8,8,6.5,13.3,5.3c0.5-0.1,1.1-0.2,1.7-0.2c0-1.4,0-2.8,0-4.1
		c3,3,6,6,9,9c-2.9,2.9-5.9,5.8-9,8.8c0-1.7,0-3.2,0-4.9c-1,0-2,0.1-2.9,0.3c-4.4,1-7.4,3.6-9.3,7.7c-0.1,0.1-0.1,0.2-0.2,0.3
		C2.6,20.7,2.6,19.2,2.6,17.7z"/>
</g>
</svg>
