<?xml version="1.0" encoding="utf-8"?>
<!-- Generator: Adobe Illustrator 21.1.0, SVG Export Plug-In . SVG Version: 6.00 Build 0)  -->
<svg version="1.1" id="Layer_1" xmlns="http://www.w3.org/2000/svg" xmlns:xlink="http://www.w3.org/1999/xlink" x="0px" y="0px"
	 viewBox="0 0 28.5 38" style="enable-background:new 0 0 28.5 38;" xml:space="preserve">
<style type="text/css">
	.st0{fill:#CBCBCB;}
	.st1{enable-background:new    ;}
	.st2{fill:#C0BFBF;}
</style>
<g>
	<path class="st0" d="M2.6,19.3c0.2-1,0.3-1.9,0.5-2.9c1.6-5.4,5.1-8.9,10.7-10.1c0.6-0.1,1.2-0.2,1.8-0.3c0-1.5,0-2.9,0-4.3
		c3.1,3.1,6.2,6.2,9.4,9.4c-3.1,3-6.2,6.1-9.4,9.2c0-1.7,0-3.4,0-5.1c-1.1,0-2.1,0.1-3.1,0.3c-4.6,1.1-7.8,3.8-9.8,8
		c-0.1,0.1-0.1,0.2-0.2,0.3C2.6,22.4,2.6,20.9,2.6,19.3z"/>
</g>
<g class="st1">
	<path class="st2" d="M1,35.5v-1c0.6,0.3,1,0.4,1.3,0.5c0.2,0,0.5,0,0.7,0c0.4,0,0.7-0.1,1-0.3c0.2-0.2,0.4-0.5,0.4-0.8
		c0-0.2-0.1-0.5-0.2-0.7c-0.1-0.2-0.4-0.4-1-0.7l-0.5-0.3c-0.7-0.4-1.1-0.7-1.3-1s-0.3-0.7-0.3-1s0.1-0.7,0.3-1s0.4-0.5,0.7-0.7
		s0.7-0.3,1.2-0.3c0.6,0,1.1,0.1,1.8,0.3v0.9C4.6,29.2,4.2,29.1,4,29c-0.4,0-0.6,0-0.8,0c-0.4,0-0.7,0.1-0.9,0.3
		C2.1,29.5,2,29.7,2,30c0,0.2,0,0.3,0.1,0.5c0.1,0.2,0.2,0.3,0.4,0.4c0.2,0.1,0.4,0.3,0.7,0.4l0.5,0.3c0.7,0.4,1.1,0.7,1.3,1
		s0.3,0.7,0.3,1.1c0,0.6-0.2,1.1-0.6,1.5c-0.4,0.4-1.1,0.6-1.9,0.6c-0.3,0-0.5,0-0.8-0.1C1.9,35.7,1.5,35.6,1,35.5z"/>
	<path class="st2" d="M6.8,35.6v-7.7h1v3.4c0.2-0.4,0.5-0.6,0.9-0.8c0.3-0.2,0.7-0.3,1-0.3c0.4,0,0.8,0.1,1.1,0.4s0.4,0.7,0.4,1.2
		v3.8h-1v-3.5c0-0.4,0-0.6-0.1-0.7s-0.2-0.2-0.3-0.3c-0.1,0-0.2-0.1-0.3-0.1c-0.2,0-0.5,0.1-0.8,0.2s-0.6,0.5-0.9,0.9v3.4L6.8,35.6
		L6.8,35.6z"/>
	<path class="st2" d="M15.8,35c-0.3,0.3-0.6,0.5-0.9,0.6c-0.3,0.1-0.6,0.2-0.8,0.2c-0.4,0-0.7-0.1-1.1-0.4c-0.3-0.2-0.5-0.6-0.5-1.1
		s0.2-1,0.7-1.3s1.2-0.5,2.2-0.5h0.2v-0.6c0-0.3,0-0.4-0.1-0.6c-0.1-0.1-0.2-0.2-0.3-0.3c-0.1-0.1-0.3-0.1-0.5-0.1
		c-0.5,0-1.1,0.2-1.7,0.5v-0.8c0.7-0.3,1.3-0.4,1.9-0.4c0.3,0,0.6,0,0.9,0.1c0.3,0.1,0.5,0.3,0.6,0.5c0.2,0.2,0.2,0.6,0.2,1v2.4
		c0,0.3,0,0.4,0.1,0.5c0,0.1,0.1,0.2,0.2,0.2s0.2,0.1,0.3,0.1c0,0,0.1,0,0.2,0l0.1,0.5c-0.2,0.1-0.5,0.2-0.7,0.2s-0.3-0.1-0.5-0.2
		C16,35.5,15.9,35.3,15.8,35z M15.7,34.4V33h-0.3c-0.5,0-0.9,0.1-1.3,0.3c-0.4,0.2-0.5,0.5-0.5,0.8c0,0.2,0.1,0.4,0.3,0.6
		s0.4,0.2,0.6,0.2c0.2,0,0.4,0,0.6-0.1C15.3,34.7,15.5,34.6,15.7,34.4z"/>
	<path class="st2" d="M18.6,35.6v-5.3h1v1c0.2-0.4,0.4-0.6,0.7-0.8c0.3-0.2,0.6-0.3,1-0.3c0.1,0,0.2,0,0.3,0v0.9
		C21.4,31,21.3,31,21.2,31c-0.3,0-0.6,0.1-0.8,0.3c-0.3,0.2-0.5,0.5-0.7,0.8v3.5C19.7,35.6,18.6,35.6,18.6,35.6z"/>
	<path class="st2" d="M26.6,35.5c-0.7,0.2-1.2,0.3-1.7,0.3c-0.8,0-1.5-0.3-2-0.8c-0.5-0.6-0.7-1.2-0.7-2c0-0.5,0.1-1,0.3-1.4
		c0.2-0.4,0.5-0.8,0.8-1s0.7-0.3,1.2-0.3c0.6,0,1.1,0.2,1.5,0.7c0.4,0.4,0.6,1.1,0.6,2v0.3h-3.4c0.1,0.5,0.2,0.8,0.3,1.1
		c0.2,0.3,0.4,0.5,0.6,0.6c0.3,0.1,0.6,0.2,1,0.2c0.2,0,0.4,0,0.6-0.1c0.2,0,0.5-0.1,0.9-0.3C26.6,34.8,26.6,35.5,26.6,35.5z
		 M23.3,32.4h2.4c0-0.5-0.1-0.9-0.3-1.1c-0.2-0.2-0.5-0.3-0.8-0.3c-0.4,0-0.7,0.1-0.9,0.4C23.4,31.5,23.3,31.9,23.3,32.4z"/>
</g>
</svg>
