<?xml version="1.0" encoding="utf-8"?>
<!-- Generator: Adobe Illustrator 21.1.0, SVG Export Plug-In . SVG Version: 6.00 Build 0)  -->
<svg version="1.1" id="Layer_1" xmlns="http://www.w3.org/2000/svg" xmlns:xlink="http://www.w3.org/1999/xlink" x="0px" y="0px"
	 viewBox="0 0 20.8 22.2" style="enable-background:new 0 0 20.8 22.2;" xml:space="preserve">
<style type="text/css">
	.st0{fill:#FFFFFF;}
</style>
<g>
	<path class="st0" d="M0.9,16.6c0.2-0.8,0.2-1.7,0.5-2.4c1.4-4.6,4.3-7.5,9.1-8.6c0.5-0.1,1-0.1,1.5-0.2c0-1.2,0-2.5,0-3.7
		c2.6,2.6,5.3,5.3,8,8c-2.6,2.6-5.3,5.2-8,7.8c0-1.5,0-2.9,0-4.3c-0.9,0-1.8,0.1-2.6,0.3c-3.9,0.9-6.6,3.2-8.3,6.8
		c0,0.1-0.1,0.2-0.2,0.3C0.9,19.2,0.9,17.9,0.9,16.6z"/>
</g>
</svg>
