<?xml version="1.0" encoding="utf-8"?>
<!-- Generator: Adobe Illustrator 21.1.0, SVG Export Plug-In . SVG Version: 6.00 Build 0)  -->
<svg version="1.1" id="Layer_1" xmlns="http://www.w3.org/2000/svg" xmlns:xlink="http://www.w3.org/1999/xlink" x="0px" y="0px"
	 viewBox="0 0 26.6 33.3" style="enable-background:new 0 0 26.6 33.3;" xml:space="preserve">
<style type="text/css">
	.st0{display:none;fill:#42E200;}
	.st1{enable-background:new    ;}
	.st2{fill:#FFFFFF;}
	.st3{fill:none;stroke:#FFFFFF;stroke-width:1.25;stroke-linejoin:round;stroke-miterlimit:10;}
</style>
<rect x="-3.9" y="-5.4" class="st0" width="37" height="44.8"/>
<g class="st1">
	<path class="st2" d="M0.5,32.6v-1c0.6,0.3,1,0.4,1.3,0.5s0.5,0.1,0.7,0.1c0.4,0,0.7-0.1,1-0.3c0.2-0.2,0.4-0.5,0.4-0.8
		c0-0.2-0.1-0.5-0.2-0.7c-0.1-0.2-0.4-0.4-1-0.7l-0.5-0.3c-0.7-0.4-1.1-0.7-1.3-1s-0.3-0.7-0.3-1c0-0.3,0.1-0.7,0.3-1
		s0.4-0.5,0.7-0.7c0.3-0.2,0.7-0.3,1.2-0.3c0.6,0,1.1,0.1,1.8,0.3v0.9c-0.5-0.2-0.9-0.3-1.1-0.4s-0.4-0.1-0.6-0.1
		c-0.4,0-0.7,0.1-0.9,0.3s-0.3,0.4-0.3,0.7c0,0.2,0,0.3,0.1,0.5C1.8,27.7,1.9,27.9,2,28c0.2,0.1,0.4,0.3,0.7,0.4l0.5,0.3
		c0.7,0.4,1.1,0.7,1.3,1c0.2,0.3,0.3,0.7,0.3,1.1c0,0.6-0.2,1.1-0.6,1.5s-1.1,0.6-1.9,0.6c-0.3,0-0.5,0-0.8-0.1
		C1.4,32.9,1,32.8,0.5,32.6z"/>
	<path class="st2" d="M6.3,32.8V25h1v3.4c0.2-0.4,0.5-0.6,0.9-0.8c0.3-0.2,0.7-0.3,1-0.3c0.4,0,0.8,0.1,1.1,0.4s0.4,0.7,0.4,1.2v3.8
		h-1v-3.5c0-0.4,0-0.6-0.1-0.7c-0.1-0.1-0.2-0.2-0.3-0.3S9.1,28.2,9,28.2c-0.2,0-0.5,0.1-0.8,0.2s-0.6,0.5-0.9,0.9v3.4H6.3z"/>
	<path class="st2" d="M15.3,32.1c-0.3,0.3-0.6,0.5-0.9,0.6c-0.3,0.1-0.6,0.2-0.8,0.2c-0.4,0-0.7-0.1-1.1-0.4s-0.5-0.6-0.5-1.1
		c0-0.5,0.2-1,0.7-1.3c0.5-0.3,1.2-0.5,2.2-0.5h0.2V29c0-0.3,0-0.4-0.1-0.6c-0.1-0.1-0.2-0.2-0.3-0.3s-0.3-0.1-0.5-0.1
		c-0.5,0-1.1,0.2-1.7,0.5v-0.8c0.7-0.3,1.3-0.4,1.9-0.4c0.3,0,0.6,0,0.9,0.1c0.3,0.1,0.5,0.3,0.6,0.5c0.2,0.2,0.2,0.6,0.2,1v2.4
		c0,0.3,0,0.4,0.1,0.5s0.1,0.2,0.2,0.2c0.1,0,0.2,0.1,0.3,0.1c0,0,0.1,0,0.2,0l0.1,0.5c-0.2,0.1-0.5,0.2-0.7,0.2
		c-0.2,0-0.3-0.1-0.5-0.2S15.4,32.4,15.3,32.1z M15.2,31.6v-1.4l-0.3,0c-0.5,0-0.9,0.1-1.3,0.3s-0.5,0.5-0.5,0.8
		c0,0.2,0.1,0.4,0.3,0.6c0.2,0.2,0.4,0.2,0.6,0.2c0.2,0,0.4,0,0.6-0.1C14.8,31.9,15,31.7,15.2,31.6z"/>
	<path class="st2" d="M18.1,32.8v-5.3h1v1c0.2-0.4,0.4-0.6,0.7-0.8c0.3-0.2,0.6-0.3,1-0.3c0.1,0,0.2,0,0.3,0v0.9
		c-0.2-0.1-0.3-0.1-0.4-0.1c-0.3,0-0.6,0.1-0.8,0.3c-0.3,0.2-0.5,0.5-0.7,0.8v3.5H18.1z"/>
	<path class="st2" d="M26.1,32.6c-0.7,0.2-1.2,0.3-1.7,0.3c-0.8,0-1.5-0.3-2-0.8c-0.5-0.6-0.7-1.2-0.7-2c0-0.5,0.1-1,0.3-1.4
		c0.2-0.4,0.5-0.8,0.8-1s0.7-0.3,1.2-0.3c0.6,0,1.1,0.2,1.5,0.7c0.4,0.4,0.6,1.1,0.6,2l0,0.3h-3.4c0.1,0.5,0.2,0.8,0.3,1.1
		c0.2,0.3,0.4,0.5,0.6,0.6c0.3,0.1,0.6,0.2,1,0.2c0.2,0,0.4,0,0.6-0.1c0.2,0,0.5-0.1,0.9-0.3V32.6z M22.8,29.5h2.4
		c0-0.5-0.1-0.9-0.3-1.1s-0.5-0.3-0.8-0.3c-0.4,0-0.7,0.1-0.9,0.4C22.9,28.7,22.8,29,22.8,29.5z"/>
</g>
<path class="st2" d="M3.8,10.7L3.8,10.7c0-2,1.6-3.6,3.6-3.6S11,8.7,11,10.7l0,0c0,2-1.6,3.6-3.6,3.6l0,0
	C5.4,14.3,3.8,12.7,3.8,10.7L3.8,10.7z"/>
<path class="st2" d="M15.9,17.7L15.9,17.7c0-2,1.6-3.6,3.6-3.6s3.6,1.6,3.6,3.6l0,0c0,2-1.6,3.6-3.6,3.6l0,0
	C17.5,21.3,15.9,19.6,15.9,17.7L15.9,17.7z"/>
<path class="st2" d="M15.9,3.6L15.9,3.6c0-2,1.6-3.6,3.6-3.6s3.6,1.6,3.6,3.6l0,0c0,2-1.6,3.6-3.6,3.6l0,0
	C17.5,7.2,15.9,5.6,15.9,3.6L15.9,3.6z"/>
<line class="st3" x1="5.4" y1="11.7" x2="21" y2="2.2"/>
<line class="st3" x1="5.4" y1="9.5" x2="21" y2="18.9"/>
</svg>
