<?xml version="1.0" encoding="utf-8"?>
<!-- Generator: Adobe Illustrator 21.1.0, SVG Export Plug-In . SVG Version: 6.00 Build 0)  -->
<svg version="1.1" id="Layer_1" xmlns="http://www.w3.org/2000/svg" xmlns:xlink="http://www.w3.org/1999/xlink" x="0px" y="0px"
	 viewBox="0 0 27 32.8" style="enable-background:new 0 0 27 32.8;" xml:space="preserve">
<style type="text/css">
	.st0{fill:#BFBFBF;}
	.st1{font-family:'LucidaSans';}
	.st2{font-size:10px;}
	.st3{fill-rule:evenodd;clip-rule:evenodd;fill:#CBCBCB;}
	.st4{fill:none;stroke:#CBCBCB;stroke-width:1.25;stroke-linejoin:round;stroke-miterlimit:10;}
</style>
<text transform="matrix(1 0 0 1 0 31.6255)" class="st0 st1 st2">Share </text>
<path class="st3" d="M3.2,11.4L3.2,11.4c0-2,1.6-3.6,3.6-3.6c2,0,3.6,1.6,3.6,3.6l0,0c0,2-1.6,3.6-3.6,3.6l0,0
	C4.8,15,3.2,13.4,3.2,11.4L3.2,11.4z"/>
<path class="st3" d="M15.2,18.3L15.2,18.3c0-2,1.6-3.6,3.6-3.6c2,0,3.6,1.6,3.6,3.6l0,0c0,2-1.6,3.6-3.6,3.6l0,0
	C16.8,21.9,15.2,20.3,15.2,18.3L15.2,18.3z"/>
<path class="st3" d="M15.2,4.3L15.2,4.3c0-2,1.6-3.6,3.6-3.6c2,0,3.6,1.6,3.6,3.6l0,0c0,2-1.6,3.6-3.6,3.6l0,0
	C16.8,7.9,15.2,6.3,15.2,4.3L15.2,4.3z"/>
<line class="st4" x1="4.8" y1="12.3" x2="20.4" y2="2.9"/>
<line class="st4" x1="4.8" y1="10.2" x2="20.4" y2="19.6"/>
</svg>
