<?xml version="1.0" encoding="utf-8"?>
<!-- Generator: Adobe Illustrator 21.1.0, SVG Export Plug-In . SVG Version: 6.00 Build 0)  -->
<svg version="1.1" id="Layer_1" xmlns="http://www.w3.org/2000/svg" xmlns:xlink="http://www.w3.org/1999/xlink" x="0px" y="0px"
	 viewBox="0 0 20.8 22.2" style="enable-background:new 0 0 20.8 22.2;" xml:space="preserve">
<style type="text/css">
	.st0{fill-rule:evenodd;clip-rule:evenodd;fill:#FFFFFF;}
	.st1{fill:none;stroke:#FFFFFF;stroke-width:1.25;stroke-linejoin:round;stroke-miterlimit:10;}
</style>
<path class="st0" d="M0.6,11.3L0.6,11.3c0-2,1.6-3.6,3.6-3.6c2,0,3.6,1.6,3.6,3.6l0,0c0,2-1.6,3.6-3.6,3.6l0,0
	C2.2,14.9,0.6,13.3,0.6,11.3L0.6,11.3z"/>
<path class="st0" d="M12.7,18.3L12.7,18.3c0-2,1.6-3.6,3.6-3.6c2,0,3.6,1.6,3.6,3.6l0,0c0,2-1.6,3.6-3.6,3.6l0,0
	C14.3,21.9,12.7,20.3,12.7,18.3L12.7,18.3z"/>
<path class="st0" d="M12.7,4.3L12.7,4.3c0-2,1.6-3.6,3.6-3.6c2,0,3.6,1.6,3.6,3.6l0,0c0,2-1.6,3.6-3.6,3.6l0,0
	C14.3,7.9,12.7,6.2,12.7,4.3L12.7,4.3z"/>
<line class="st1" x1="2.2" y1="12.3" x2="17.8" y2="2.9"/>
<line class="st1" x1="2.2" y1="10.1" x2="17.8" y2="19.5"/>
</svg>
