<?xml version="1.0" encoding="utf-8"?>
<!-- Generator: Adobe Illustrator 21.1.0, SVG Export Plug-In . SVG Version: 6.00 Build 0)  -->
<svg version="1.1" id="Layer_1" xmlns="http://www.w3.org/2000/svg" xmlns:xlink="http://www.w3.org/1999/xlink" x="0px" y="0px"
	 viewBox="0 0 27 32.8" style="enable-background:new 0 0 27 32.8;" xml:space="preserve">
<style type="text/css">
	.st0{enable-background:new    ;}
	.st1{fill:#BFBFBF;}
	.st2{fill:#CBCBCB;}
	.st3{fill:none;stroke:#CBCBCB;stroke-width:1.25;stroke-linejoin:round;stroke-miterlimit:10;}
</style>
<g class="st0">
	<path class="st1" d="M0.5,31.5v-1c0.6,0.3,1,0.4,1.3,0.5C2,31,2.3,31,2.5,31c0.4,0,0.7-0.1,1-0.3c0.2-0.2,0.4-0.5,0.4-0.8
		c0-0.2-0.1-0.5-0.2-0.7c-0.1-0.2-0.4-0.4-1-0.7l-0.5-0.3c-0.7-0.4-1.1-0.7-1.3-1s-0.3-0.7-0.3-1c0-0.3,0.1-0.7,0.3-1
		c0.2-0.3,0.4-0.5,0.7-0.7c0.3-0.2,0.7-0.3,1.2-0.3c0.6,0,1.1,0.1,1.8,0.3v0.9c-0.5-0.2-0.9-0.3-1.1-0.4C3.1,25,2.9,25,2.7,25
		c-0.4,0-0.7,0.1-0.9,0.3c-0.2,0.2-0.3,0.4-0.3,0.7c0,0.2,0,0.3,0.1,0.5c0.1,0.2,0.2,0.3,0.4,0.4c0.2,0.1,0.4,0.3,0.7,0.4l0.5,0.3
		c0.7,0.4,1.1,0.7,1.3,1c0.2,0.3,0.3,0.7,0.3,1.1c0,0.6-0.2,1.1-0.6,1.5c-0.4,0.4-1.1,0.6-1.9,0.6c-0.3,0-0.5,0-0.8-0.1
		C1.4,31.7,1,31.6,0.5,31.5z"/>
	<path class="st1" d="M6.3,31.6v-7.7h1v3.4c0.2-0.4,0.5-0.6,0.9-0.8c0.3-0.2,0.7-0.3,1-0.3c0.4,0,0.8,0.1,1.1,0.4s0.4,0.7,0.4,1.2
		v3.8h-1v-3.5c0-0.4,0-0.6-0.1-0.7c-0.1-0.1-0.2-0.2-0.3-0.3C9.2,27.1,9.1,27,9,27c-0.2,0-0.5,0.1-0.8,0.2s-0.6,0.5-0.9,0.9v3.4H6.3
		z"/>
	<path class="st1" d="M15.3,31c-0.3,0.3-0.6,0.5-0.9,0.6c-0.3,0.1-0.6,0.2-0.8,0.2c-0.4,0-0.7-0.1-1.1-0.4c-0.3-0.2-0.5-0.6-0.5-1.1
		c0-0.5,0.2-1,0.7-1.3c0.5-0.3,1.2-0.5,2.2-0.5h0.2v-0.6c0-0.3,0-0.4-0.1-0.6c-0.1-0.1-0.2-0.2-0.3-0.3c-0.1-0.1-0.3-0.1-0.5-0.1
		c-0.5,0-1.1,0.2-1.7,0.5v-0.8c0.7-0.3,1.3-0.4,1.9-0.4c0.3,0,0.6,0,0.9,0.1c0.3,0.1,0.5,0.3,0.6,0.5c0.2,0.2,0.2,0.6,0.2,1v2.4
		c0,0.3,0,0.4,0.1,0.5c0,0.1,0.1,0.2,0.2,0.2c0.1,0,0.2,0.1,0.3,0.1c0,0,0.1,0,0.2,0l0.1,0.5c-0.2,0.1-0.5,0.2-0.7,0.2
		c-0.2,0-0.3-0.1-0.5-0.2C15.5,31.5,15.4,31.3,15.3,31z M15.2,30.4v-1.4l-0.3,0c-0.5,0-0.9,0.1-1.3,0.3s-0.5,0.5-0.5,0.8
		c0,0.2,0.1,0.4,0.3,0.6c0.2,0.2,0.4,0.2,0.6,0.2c0.2,0,0.4,0,0.6-0.1C14.8,30.7,15,30.6,15.2,30.4z"/>
	<path class="st1" d="M18.1,31.6v-5.3h1v1c0.2-0.4,0.4-0.6,0.7-0.8c0.3-0.2,0.6-0.3,1-0.3c0.1,0,0.2,0,0.3,0v0.9
		c-0.2-0.1-0.3-0.1-0.4-0.1c-0.3,0-0.6,0.1-0.8,0.3c-0.3,0.2-0.5,0.5-0.7,0.8v3.5H18.1z"/>
	<path class="st1" d="M26.1,31.5c-0.7,0.2-1.2,0.3-1.7,0.3c-0.8,0-1.5-0.3-2-0.8c-0.5-0.6-0.7-1.2-0.7-2c0-0.5,0.1-1,0.3-1.4
		c0.2-0.4,0.5-0.8,0.8-1c0.3-0.2,0.7-0.3,1.2-0.3c0.6,0,1.1,0.2,1.5,0.7c0.4,0.4,0.6,1.1,0.6,2l0,0.3h-3.4c0.1,0.5,0.2,0.8,0.3,1.1
		c0.2,0.3,0.4,0.5,0.6,0.6c0.3,0.1,0.6,0.2,1,0.2c0.2,0,0.4,0,0.6-0.1c0.2,0,0.5-0.1,0.9-0.3V31.5z M22.8,28.4h2.4
		c0-0.5-0.1-0.9-0.3-1.1c-0.2-0.2-0.5-0.3-0.8-0.3c-0.4,0-0.7,0.1-0.9,0.4C22.9,27.5,22.8,27.9,22.8,28.4z"/>
</g>
<path class="st2" d="M3.2,11.4L3.2,11.4c0-2,1.6-3.6,3.6-3.6s3.6,1.6,3.6,3.6l0,0c0,2-1.6,3.6-3.6,3.6l0,0C4.8,15,3.2,13.4,3.2,11.4
	L3.2,11.4z"/>
<path class="st2" d="M15.2,18.3L15.2,18.3c0-2,1.6-3.6,3.6-3.6s3.6,1.6,3.6,3.6l0,0c0,2-1.6,3.6-3.6,3.6l0,0
	C16.8,21.9,15.2,20.3,15.2,18.3L15.2,18.3z"/>
<path class="st2" d="M15.2,4.3L15.2,4.3c0-2,1.6-3.6,3.6-3.6s3.6,1.6,3.6,3.6l0,0c0,2-1.6,3.6-3.6,3.6l0,0
	C16.8,7.9,15.2,6.3,15.2,4.3L15.2,4.3z"/>
<line class="st3" x1="4.8" y1="12.3" x2="20.4" y2="2.9"/>
<line class="st3" x1="4.8" y1="10.2" x2="20.4" y2="19.6"/>
</svg>
