<?xml version="1.0" encoding="utf-8"?>
<!-- Generator: Adobe Illustrator 21.1.0, SVG Export Plug-In . SVG Version: 6.00 Build 0)  -->
<svg version="1.1" id="Layer_1" xmlns="http://www.w3.org/2000/svg" xmlns:xlink="http://www.w3.org/1999/xlink" x="0px" y="0px"
	 viewBox="0 0 20.4 23" style="enable-background:new 0 0 20.4 23;" xml:space="preserve">
<style type="text/css">
	.st0{fill:#CBCBCB;}
	.st1{fill:none;stroke:#CBCBCB;stroke-width:1.25;stroke-linejoin:round;stroke-miterlimit:10;}
</style>
<path class="st0" d="M0.7,11.4L0.7,11.4c0-2,1.6-3.6,3.6-3.6s3.6,1.6,3.6,3.6l0,0c0,2-1.6,3.6-3.6,3.6l0,0C2.3,15,0.7,13.4,0.7,11.4
	L0.7,11.4z"/>
<path class="st0" d="M12.7,18.3L12.7,18.3c0-2,1.6-3.6,3.6-3.6s3.6,1.6,3.6,3.6l0,0c0,2-1.6,3.6-3.6,3.6l0,0
	C14.3,21.9,12.7,20.3,12.7,18.3L12.7,18.3z"/>
<path class="st0" d="M12.7,4.3L12.7,4.3c0-2,1.6-3.6,3.6-3.6s3.6,1.6,3.6,3.6l0,0c0,2-1.6,3.6-3.6,3.6l0,0
	C14.3,7.9,12.7,6.3,12.7,4.3L12.7,4.3z"/>
<line class="st1" x1="2.3" y1="12.3" x2="17.9" y2="2.9"/>
<line class="st1" x1="2.3" y1="10.2" x2="17.9" y2="19.6"/>
</svg>
