<?xml version="1.0" encoding="utf-8"?>
<!-- Generator: Adobe Illustrator 21.1.0, SVG Export Plug-In . SVG Version: 6.00 Build 0)  -->
<svg version="1.1" id="Layer_1" xmlns="http://www.w3.org/2000/svg" xmlns:xlink="http://www.w3.org/1999/xlink" x="0px" y="0px"
	 viewBox="0 0 20.4 23" style="enable-background:new 0 0 20.4 23;" xml:space="preserve">
<style type="text/css">
	.st0{fill:#CBCBCB;}
</style>
<g>
	<path class="st0" d="M1.2,16.8c0.1-0.8,0.2-1.6,0.5-2.4C3,10,5.8,7.1,10.4,6.1c0.5-0.1,1-0.1,1.5-0.2c0-1.2,0-2.4,0-3.6
		c2.6,2.6,5.1,5.1,7.8,7.8c-2.5,2.5-5.1,5-7.7,7.6c0-1.4,0-2.8,0-4.2c-0.9,0-1.7,0.1-2.5,0.3c-3.8,0.9-6.4,3.1-8.1,6.6
		c0,0.1-0.1,0.2-0.1,0.3C1.2,19.4,1.2,18.1,1.2,16.8z"/>
</g>
</svg>
