<?xml version="1.0" encoding="utf-8"?>
<!-- Generator: Adobe Illustrator 16.0.0, SVG Export Plug-In . SVG Version: 6.00 Build 0)  -->
<!DOCTYPE svg PUBLIC "-//W3C//DTD SVG 1.1//EN" "http://www.w3.org/Graphics/SVG/1.1/DTD/svg11.dtd">
<svg version="1.1" id="Layer_1" xmlns="http://www.w3.org/2000/svg" xmlns:xlink="http://www.w3.org/1999/xlink" x="0px" y="0px"
	 width="68px" height="150px" viewBox="0 0 68 150" enable-background="new 0 0 68 150" xml:space="preserve">
<g>
	<path fill="#A0A0A0" d="M4,92.666c0.333-2.666,0.667-5.332,1.667-8C10,70,19.333,60.333,34.666,57c1.668-0.333,3.334-0.333,5-0.667
		c0-4,0-8,0-12c8.668,8.667,17,17,26,26C57.334,78.666,48.666,87,40,95.666c0-4.666,0-9.332,0-14c-3,0-5.667,0.334-8.333,1
		c-12.667,3-21.333,10.334-27,22c0,0.334-0.333,0.668-0.333,1C4,101.334,4,97,4,92.666z"/>
</g>
</svg>
