<?xml version="1.0" encoding="utf-8"?>
<!-- Generator: Adobe Illustrator 21.1.0, SVG Export Plug-In . SVG Version: 6.00 Build 0)  -->
<svg version="1.1" id="Layer_1" xmlns="http://www.w3.org/2000/svg" xmlns:xlink="http://www.w3.org/1999/xlink" x="0px" y="0px"
	 viewBox="0 0 21.8 31.7" style="enable-background:new 0 0 21.8 31.7;" xml:space="preserve">
<style type="text/css">
	.st0{fill:#BFBFBF;}
	.st1{fill-rule:evenodd;clip-rule:evenodd;fill:#CBCBCB;}
</style>
<g>
	<path class="st0" d="M0.6,23.7h1v4.6c0,0.8,0.1,1.3,0.4,1.6s0.7,0.4,1.2,0.4c0.3,0,0.6-0.1,0.8-0.2c0.2-0.1,0.4-0.3,0.5-0.6
		s0.2-0.7,0.2-1.3v-4.6h0.9v4.6c0,0.8-0.1,1.3-0.3,1.7c-0.2,0.3-0.5,0.6-0.8,0.8c-0.4,0.2-0.8,0.3-1.4,0.3c-0.6,0-1.1-0.1-1.5-0.3
		S1,30.3,0.8,29.9S0.6,29,0.6,28.3V23.7z"/>
	<path class="st0" d="M7.4,30.8v-0.9C8,30.2,8.6,30.4,9,30.4c0.3,0,0.5-0.1,0.7-0.2C9.9,30,10,29.8,10,29.6c0-0.1,0-0.3-0.1-0.4
		c-0.1-0.1-0.3-0.3-0.6-0.4l-0.6-0.2c-0.4-0.2-0.8-0.4-0.9-0.6c-0.2-0.2-0.3-0.5-0.3-0.9c0-0.4,0.2-0.8,0.5-1.1
		c0.3-0.3,0.8-0.4,1.4-0.4c0.3,0,0.7,0,1.1,0.1l0.2,0v0.8c-0.5-0.2-1-0.2-1.3-0.2c-0.3,0-0.5,0.1-0.7,0.2s-0.2,0.3-0.2,0.5
		c0,0.1,0.1,0.3,0.2,0.4c0.1,0.1,0.3,0.2,0.5,0.3l0.5,0.2c0.6,0.3,1,0.5,1.2,0.8c0.2,0.3,0.3,0.5,0.3,0.8c0,0.3-0.1,0.6-0.2,0.8
		c-0.2,0.2-0.4,0.4-0.7,0.6c-0.3,0.1-0.7,0.2-1,0.2C8.5,31.1,8,31,7.4,30.8z"/>
	<path class="st0" d="M16.6,30.8c-0.7,0.2-1.2,0.3-1.7,0.3c-0.8,0-1.5-0.3-2-0.8c-0.5-0.6-0.7-1.2-0.7-2c0-0.5,0.1-1,0.3-1.4
		s0.5-0.8,0.8-1s0.7-0.3,1.2-0.3c0.6,0,1.1,0.2,1.5,0.7c0.4,0.4,0.6,1.1,0.6,2l0,0.3h-3.4c0.1,0.5,0.2,0.8,0.3,1.1
		c0.2,0.3,0.4,0.5,0.6,0.6c0.3,0.1,0.6,0.2,1,0.2c0.2,0,0.4,0,0.6-0.1c0.2,0,0.5-0.1,0.9-0.3V30.8z M13.3,27.7h2.4
		c0-0.5-0.1-0.9-0.3-1.1c-0.2-0.2-0.5-0.3-0.8-0.3c-0.4,0-0.7,0.1-0.9,0.4C13.4,26.9,13.3,27.2,13.3,27.7z"/>
	<path class="st0" d="M18.2,31v-5.3h1v1c0.2-0.4,0.4-0.6,0.7-0.8c0.3-0.2,0.6-0.3,1-0.3c0.1,0,0.2,0,0.3,0v0.9
		c-0.2-0.1-0.3-0.1-0.4-0.1c-0.3,0-0.6,0.1-0.8,0.3c-0.3,0.2-0.5,0.5-0.7,0.8V31H18.2z"/>
</g>
<path class="st1" d="M3.5,19.3L3.5,19.3C2.4,15.1,4.9,10.8,9,9.7c4.2-1.1,8.5,1.4,9.6,5.6c0.4,1.4,0.3,2.8-0.1,4.2L3.5,19.3z"/>
<path class="st1" d="M6.3,5.9L6.3,5.9C6.3,3.2,8.5,1,11.2,1s4.9,2.2,4.9,4.9l0,0c0,2.7-2.2,4.9-4.9,4.9l0,0
	C8.5,10.8,6.3,8.6,6.3,5.9L6.3,5.9z"/>
</svg>
