<?xml version="1.0" encoding="utf-8"?>
<!-- Generator: Adobe Illustrator 21.1.0, SVG Export Plug-In . SVG Version: 6.00 Build 0)  -->
<svg version="1.1" id="Layer_1" xmlns="http://www.w3.org/2000/svg" xmlns:xlink="http://www.w3.org/1999/xlink" x="0px" y="0px"
	 viewBox="0 0 16.2 19" style="enable-background:new 0 0 16.2 19;" xml:space="preserve">
<style type="text/css">
	.st0{fill-rule:evenodd;clip-rule:evenodd;fill:#CBCBCB;}
</style>
<path class="st0" d="M0.5,18.6L0.5,18.6c-1.1-4.2,1.4-8.5,5.6-9.6c4.2-1.1,8.5,1.4,9.6,5.6c0.4,1.4,0.3,2.8-0.1,4.2L0.5,18.6z"/>
<path class="st0" d="M3.4,5.2L3.4,5.2c0-2.7,2.2-4.9,4.9-4.9c2.7,0,4.9,2.2,4.9,4.9l0,0c0,2.7-2.2,4.9-4.9,4.9l0,0
	C5.6,10.1,3.4,7.9,3.4,5.2L3.4,5.2z"/>
</svg>
