<?xml version="1.0" encoding="utf-8"?>
<!-- Generator: Adobe Illustrator 21.1.0, SVG Export Plug-In . SVG Version: 6.00 Build 0)  -->
<svg version="1.1" id="Layer_1" xmlns="http://www.w3.org/2000/svg" xmlns:xlink="http://www.w3.org/1999/xlink" x="0px" y="0px"
	 viewBox="0 0 16.3 34.8" style="enable-background:new 0 0 16.3 34.8;" xml:space="preserve">
<style type="text/css">
	.st0{enable-background:new    ;}
	.st1{fill:#FFFFFF;}
	.st2{fill:none;stroke:#FFFFFF;stroke-width:0.6;stroke-miterlimit:10;}
</style>
<g class="st0">
	<path class="st1" d="M15.2,12.3H13L8.1,3.9H8l-5,8.4H0.8L7.9,1.1h0.4L15.2,12.3z"/>
</g>
<g class="st0">
	<path class="st2" d="M15.2,12.3H13L8.1,3.9H8l-5,8.4H0.8L7.9,1.1h0.4L15.2,12.3z"/>
</g>
<g class="st0">
	<path class="st1" d="M15.1,33.7h-2.3L8,25.4H7.9l-5,8.4H0.7l7.1-11.2h0.4L15.1,33.7z"/>
</g>
<g class="st0">
	<path class="st2" d="M15.1,33.7h-2.3L8,25.4H7.9l-5,8.4H0.7l7.1-11.2h0.4L15.1,33.7z"/>
</g>
<g class="st0">
	<path class="st1" d="M15.2,22.9H13l-4.8-8.4H8l-5,8.4H0.8l7.1-11.2h0.4L15.2,22.9z"/>
</g>
<g class="st0">
	<path class="st2" d="M15.2,22.9H13l-4.8-8.4H8l-5,8.4H0.8l7.1-11.2h0.4L15.2,22.9z"/>
</g>
</svg>
