<?xml version="1.0" encoding="utf-8"?>
<!-- Generator: Adobe Illustrator 21.1.0, SVG Export Plug-In . SVG Version: 6.00 Build 0)  -->
<svg version="1.1" id="Layer_1" xmlns="http://www.w3.org/2000/svg" xmlns:xlink="http://www.w3.org/1999/xlink" x="0px" y="0px"
	 viewBox="0 0 16 35.6" style="enable-background:new 0 0 16 35.6;" xml:space="preserve">
<style type="text/css">
	.st0{enable-background:new    ;}
	.st1{fill:#E3C100;}
	.st2{fill:none;stroke:#E3C100;stroke-width:0.6;stroke-miterlimit:10;}
	.st3{fill:#FFFFFF;}
	.st4{fill:none;stroke:#FFFFFF;stroke-width:0.6;stroke-miterlimit:10;}
</style>
<g class="st0">
	<path class="st1" d="M15.2,12.7H13L8.1,4.3H8l-5,8.4H0.8L7.9,1.5h0.4L15.2,12.7z"/>
</g>
<g class="st0">
	<path class="st2" d="M15.2,12.7H13L8.1,4.3H8l-5,8.4H0.8L7.9,1.5h0.4L15.2,12.7z"/>
</g>
<g class="st0">
	<path class="st1" d="M15.1,34.1h-2.3L8,25.8H7.9l-5,8.4H0.7l7.1-11.2h0.4L15.1,34.1z"/>
</g>
<g class="st0">
	<path class="st2" d="M15.1,34.1h-2.3L8,25.8H7.9l-5,8.4H0.7l7.1-11.2h0.4L15.1,34.1z"/>
</g>
<g class="st0">
	<path class="st3" d="M15.2,23.3H13l-4.8-8.4H8l-5,8.4H0.8l7.1-11.2h0.4L15.2,23.3z"/>
</g>
<g class="st0">
	<path class="st4" d="M15.2,23.3H13l-4.8-8.4H8l-5,8.4H0.8l7.1-11.2h0.4L15.2,23.3z"/>
</g>
</svg>
