<?xml version="1.0" encoding="utf-8"?>
<!-- Generator: Adobe Illustrator 21.1.0, SVG Export Plug-In . SVG Version: 6.00 Build 0)  -->
<svg version="1.1" id="Layer_1" xmlns="http://www.w3.org/2000/svg" xmlns:xlink="http://www.w3.org/1999/xlink" x="0px" y="0px"
	 viewBox="0 0 16 35.6" style="enable-background:new 0 0 16 35.6;" xml:space="preserve">
<style type="text/css">
	.st0{enable-background:new    ;}
	.st1{fill:#E3C100;}
	.st2{fill:none;stroke:#E3C100;stroke-width:0.6;stroke-miterlimit:10;}
	.st3{display:none;fill:#E3C100;enable-background:new    ;}
	.st4{font-family:'EuphemiaUCAS';}
	.st5{font-size:25px;}
	.st6{display:none;fill:none;stroke:#E3C100;stroke-width:0.6;stroke-miterlimit:10;enable-background:new    ;}
	.st7{fill:#FFFFFF;}
	.st8{fill:none;stroke:#FFFFFF;stroke-width:0.6;stroke-miterlimit:10;}
</style>
<g class="st0">
	<path class="st1" d="M15.2,12.7H13L8.1,4.3H8l-5,8.4H0.8L7.9,1.5h0.4L15.2,12.7z"/>
</g>
<g class="st0">
	<path class="st2" d="M15.2,12.7H13L8.1,4.3H8l-5,8.4H0.8L7.9,1.5h0.4L15.2,12.7z"/>
</g>
<text transform="matrix(1 0 0 1 -8.422852e-02 43.4126)" class="st3 st4 st5">^</text>
<text transform="matrix(1 0 0 1 -8.422852e-02 43.4126)" class="st6 st4 st5">^</text>
<g class="st0">
	<path class="st7" d="M15.2,23.3H13l-4.8-8.4H8l-5,8.4H0.8l7.1-11.2h0.4L15.2,23.3z"/>
</g>
<g class="st0">
	<path class="st8" d="M15.2,23.3H13l-4.8-8.4H8l-5,8.4H0.8l7.1-11.2h0.4L15.2,23.3z"/>
</g>
</svg>
