<?xml version="1.0" encoding="utf-8"?>
<!-- Generator: Adobe Illustrator 21.1.0, SVG Export Plug-In . SVG Version: 6.00 Build 0)  -->
<svg version="1.1" id="Layer_1" xmlns="http://www.w3.org/2000/svg" xmlns:xlink="http://www.w3.org/1999/xlink" x="0px" y="0px"
	 viewBox="0 0 47.4 39.4" style="enable-background:new 0 0 47.4 39.4;" xml:space="preserve">
<style type="text/css">
	.st0{fill:none;stroke:#FFFFFF;stroke-width:3;stroke-linejoin:round;stroke-miterlimit:10;}
	.st1{fill:#FFFFFF;}
</style>
<line class="st0" x1="30.1" y1="18.3" x2="13.3" y2="8.5"/>
<line class="st0" x1="13.3" y1="18.5" x2="30.1" y2="8.7"/>
<line class="st0" x1="21.9" y1="23.7" x2="21.8" y2="4.2"/>
<g>
	<path class="st1" d="M13.5,38.5h-1.2V31h1.4l1.9,3.1c0.3,0.6,0.7,1.1,0.9,1.6c0.3,0.5,0.5,0.8,0.6,1l0.2,0.3c0-0.7-0.1-1.7-0.1-3
		V31h1.2v7.5H17l-1.9-3.1c-0.3-0.6-0.6-1.1-0.9-1.6c-0.3-0.5-0.5-0.9-0.6-1.1l-0.2-0.3c0.1,0.7,0.1,1.7,0.1,3V38.5z"/>
	<path class="st1" d="M24.3,33.6c0.5,0.5,0.7,1.2,0.7,2.1s-0.2,1.5-0.7,2.1c-0.5,0.6-1.1,0.8-2,0.8c-0.8,0-1.5-0.3-2-0.8
		s-0.7-1.2-0.7-2.1c0-0.8,0.2-1.6,0.7-2.1c0.5-0.6,1.1-0.8,1.9-0.8C23.2,32.8,23.8,33.1,24.3,33.6z M20.8,35.7c0,0.6,0.1,1,0.4,1.4
		c0.3,0.4,0.7,0.6,1.1,0.6c0.5,0,0.9-0.2,1.2-0.6c0.3-0.4,0.4-0.8,0.4-1.4c0-0.6-0.1-1.1-0.4-1.4c-0.3-0.4-0.6-0.6-1.2-0.6
		c-0.5,0-0.9,0.2-1.1,0.6C20.9,34.7,20.8,35.1,20.8,35.7z"/>
	<path class="st1" d="M29.2,38.4c-0.2,0.1-0.5,0.2-0.9,0.2c-1.2,0-1.8-0.6-1.8-1.8v-3.1h-0.9v-0.8h0.9v-1.4h1.1v1.4h1.5v0.8h-1.5
		v3.1c0,0.5,0.3,0.8,0.8,0.8c0.3,0,0.6-0.1,0.8-0.2V38.4z"/>
	<path class="st1" d="M34.6,38.2c-0.4,0.2-1,0.4-1.7,0.4c-0.9,0-1.6-0.3-2.1-0.8c-0.5-0.5-0.8-1.2-0.8-2.1c0-0.9,0.2-1.6,0.7-2.1
		s1.1-0.8,1.8-0.8c0.7,0,1.3,0.2,1.7,0.7c0.4,0.5,0.6,1.1,0.6,1.9c0,0.2,0,0.5-0.1,0.7h-3.7c0.1,0.5,0.3,0.9,0.6,1.1
		c0.3,0.3,0.8,0.4,1.3,0.4c0.6,0,1.1-0.1,1.5-0.4V38.2z M32.7,33.7c-0.4,0-0.7,0.1-1,0.4c-0.3,0.3-0.4,0.7-0.5,1.2h2.7v-0.2
		c0-0.4-0.1-0.8-0.3-1C33.4,33.8,33.1,33.7,32.7,33.7z"/>
</g>
</svg>
